<?xml version="1.0" encoding="UTF-8" standalone="no"?>
<!-- Created with Inkscape (http://www.inkscape.org/) -->

<svg
   width="120.64424mm"
   height="120.64424mm"
   viewBox="0 0 120.64424 120.64424"
   version="1.1"
   id="svg1"
   inkscape:version="1.4 (86a8ad7, 2024-10-11)"
   sodipodi:docname="freq.svg"
   xmlns:inkscape="http://www.inkscape.org/namespaces/inkscape"
   xmlns:sodipodi="http://sodipodi.sourceforge.net/DTD/sodipodi-0.dtd"
   xmlns="http://www.w3.org/2000/svg"
   xmlns:svg="http://www.w3.org/2000/svg">
  <sodipodi:namedview
     id="namedview1"
     pagecolor="#ffffff"
     bordercolor="#000000"
     borderopacity="0.25"
     inkscape:showpageshadow="2"
     inkscape:pageopacity="0.0"
     inkscape:pagecheckerboard="0"
     inkscape:deskcolor="#d1d1d1"
     inkscape:document-units="mm"
     inkscape:zoom="0.68862935"
     inkscape:cx="299.14496"
     inkscape:cy="265.0192"
     inkscape:window-width="1920"
     inkscape:window-height="991"
     inkscape:window-x="-9"
     inkscape:window-y="-9"
     inkscape:window-maximized="1"
     inkscape:current-layer="layer1" />
  <defs
     id="defs1">
    <rect
       x="75.51232"
       y="320.92736"
       width="201.85024"
       height="85.67744"
       id="rect2" />
  </defs>
  <g
     inkscape:label="Calque 1"
     inkscape:groupmode="layer"
     id="layer1"
     transform="translate(-25.742561,-78.380333)">
    <rect
       style="fill:#008000;stroke-width:0.105833"
       id="rect1"
       width="120.64424"
       height="120.64424"
       x="25.742561"
       y="78.380333"
       rx="5.1329165" />
    <path
       style="font-size:55.2306px;font-family:'Arial Rounded MT Bold';-inkscape-font-specification:'Arial Rounded MT Bold, ';fill:#ffffff;stroke-width:0.291595"
       d="m 51.324622,132.04167 q -1.754161,2.07304 -3.933509,3.13614 -2.15279,1.03654 -4.783957,1.03654 -2.498303,0 -4.677688,-0.95679 -2.152789,-0.98335 -3.747417,-2.71092 -1.568107,-1.75412 -2.418592,-4.06637 -0.850485,-2.33884 -0.850485,-4.89026 0,-2.73751 0.956791,-5.18266 0.956829,-2.47171 2.73751,-4.27899 1.780719,-1.80727 4.225832,-2.81722 2.471745,-1.00998 5.448425,-1.00998 3.428499,0 6.112856,1.24915 2.684357,1.24915 4.518192,3.64115 1.833871,2.3654 2.817221,5.97996 0.983386,3.61455 0.983386,8.18593 0,5.10288 -1.036539,9.00979 -1.036503,3.88035 -3.029833,6.53808 -1.966736,2.6312 -4.730841,3.93351 -2.764068,1.27571 -6.272316,1.27571 -3.455057,0 -6.00655,-1.30231 -2.551418,-1.32886 -3.880318,-3.26904 -1.328862,-1.96673 -1.328862,-3.77401 0,-1.11625 0.82389,-1.99333 0.82389,-0.87704 2.099637,-0.87704 1.169403,0 2.099636,0.66443 0.930197,0.63787 1.408611,1.94017 0.58472,1.59467 1.940178,2.57802 1.355457,0.95679 3.056428,0.95679 1.514916,0 2.870374,-0.77074 1.355457,-0.77073 2.312249,-2.17938 1.913582,-2.84378 2.285691,-10.04633 z m -0.611316,-8.13274 q 0,-1.80728 -0.504972,-3.3222 -0.478377,-1.54151 -1.382015,-2.65776 -0.877081,-1.11629 -2.126232,-1.75412 -1.222557,-0.63788 -2.68432,-0.63788 -2.524898,0 -4.279022,2.17935 -1.754086,2.15279 -1.754086,5.71419 0,3.53484 1.754086,5.63448 1.754124,2.0996 4.438481,2.0996 1.647817,0 3.136176,-0.85045 1.514917,-0.87708 2.445113,-2.5249 0.956791,-1.64781 0.956791,-3.88031 z m 25.700578,2.07304 q 2.44515,0 4.19927,-1.43517 1.78068,-1.43521 1.78068,-4.11956 0,-2.04645 -1.40861,-3.50825 -1.40861,-1.48832 -3.8006,-1.48832 -1.62123,0 -2.68432,0.45182 -1.03654,0.45182 -1.64782,1.19599 -0.61128,0.74418 -1.16941,1.91359 -0.53156,1.1694 -0.98338,2.20594 -0.26595,0.55813 -0.95679,0.87704 -0.69103,0.31885 -1.59467,0.31885 -1.063095,0 -1.966733,-0.85045 -0.877081,-0.87708 -0.877081,-2.31225 0,-1.38205 0.823928,-2.89697 0.850485,-1.54151 2.445146,-2.92353 1.62123,-1.38205 4.01322,-2.20598 2.39196,-0.85044 5.34209,-0.85044 2.57801,0 4.70424,0.71758 2.1262,0.69103 3.6943,2.01989 1.56807,1.3289 2.3654,3.08302 0.79734,1.75413 0.79734,3.77401 0,2.65777 -1.16944,4.57135 -1.14281,1.88702 -3.2956,3.6943 2.07304,1.11625 3.48165,2.55142 1.43521,1.4352 2.15279,3.18933 0.71758,1.72753 0.71758,3.74745 0,2.41856 -0.98335,4.67765 -0.95679,2.2591 -2.84381,4.03982 -1.88703,1.75412 -4.4916,2.76407 -2.57805,0.98335 -5.71423,0.98335 -3.18929,0 -5.71415,-1.14281 -2.5249,-1.14285 -4.172714,-2.84382 -1.621222,-1.72753 -2.471708,-3.5614 -0.823927,-1.83387 -0.823927,-3.02987 0,-1.54147 0.983386,-2.47171 1.009945,-0.95679 2.498303,-0.95679 0.74418,0 1.43517,0.45182 0.69103,0.42526 0.90367,1.03654 1.38202,3.69426 2.95009,5.50154 1.59466,1.78072 4.46508,1.78072 1.64778,0 3.16273,-0.79733 1.54147,-0.82389 2.52486,-2.41856 1.00994,-1.59466 1.00994,-3.6943 0,-3.10958 -1.70097,-4.8637 -1.70097,-1.78069 -4.7308,-1.78069 -0.53157,0 -1.64782,0.10616 -1.11625,0.10616 -1.4352,0.10616 -1.46177,0 -2.2591,-0.71759 -0.79733,-0.74417 -0.79733,-2.04648 0,-1.27575 0.95683,-2.04648 0.95679,-0.79734 2.84378,-0.79734 z m 25.992906,24.18562 q -1.64782,0 -2.843784,-1.0631 -1.196,-1.06309 -1.196,-2.97668 0,-1.62126 1.14285,-2.79066 1.142804,-1.1694 2.817224,-1.1694 1.67437,0 2.84378,1.1694 1.19599,1.14284 1.19599,2.79066 0,1.88703 -1.19599,2.97668 -1.16941,1.0631 -2.76407,1.0631 z m 18.33857,-21.74047 q 1.80727,-2.15279 3.93351,-3.18933 2.12619,-1.0365 4.75736,-1.0365 2.52489,0 4.65109,0.95679 2.15279,0.93019 3.74745,2.68432 1.62123,1.72756 2.49831,4.09296 0.87704,2.36541 0.87704,4.94342 0,3.74745 -1.72753,6.80388 -1.70097,3.05643 -4.78399,4.78396 -3.05643,1.70097 -6.93675,1.70097 -4.46504,0 -7.70752,-2.17935 -3.24244,-2.17935 -4.97001,-6.43177 -1.70097,-4.27902 -1.70097,-10.44503 0,-5.02317 1.03654,-8.98323 1.03654,-3.96007 2.97668,-6.56468 1.94018,-2.60461 4.70424,-3.93347 2.76407,-1.3289 6.29891,-1.3289 3.40195,0 5.97996,1.3289 2.60461,1.32886 3.90691,3.29564 1.32887,1.96673 1.32887,3.77401 0,1.08969 -0.82389,1.99333 -0.82389,0.87704 -2.09964,0.87704 -1.11625,0 -2.07304,-0.69099 -0.95679,-0.71762 -1.40861,-1.96677 -0.61132,-1.59467 -1.94018,-2.55146 -1.32886,-0.98335 -3.08302,-0.98335 -1.40858,0 -2.81723,0.82389 -1.38201,0.79734 -2.3388,2.17939 -1.94018,2.81722 -2.28569,10.04633 z m 7.17595,16.50469 q 2.68436,0 4.43848,-2.17934 1.75412,-2.20595 1.75412,-5.76735 0,-2.41859 -0.82392,-4.14612 -0.82389,-1.75412 -2.2591,-2.65776 -1.43517,-0.93023 -3.16273,-0.93023 -1.64782,0 -3.16274,0.87708 -1.48836,0.87704 -2.41855,2.55145 -0.90364,1.64778 -0.90364,3.88032 0,3.588 1.86043,5.97996 1.86043,2.39199 4.67765,2.39199 z"
       id="text11"
       aria-label="93.6" />
    <path
       d="M 113.28257,343.11527 H 91.954435 v 13.67188 h 17.828135 q 2.47917,0 3.68229,1.13021 1.23959,1.09375 1.23959,2.95313 0,1.85937 -1.23959,2.95312 -1.23958,1.09375 -3.68229,1.09375 H 91.954435 v 17.60939 q 0,3.35416 -1.531251,4.99479 -1.494792,1.60417 -3.864585,1.60417 -2.406251,0 -3.937502,-1.64063 -1.494792,-1.64062 -1.494792,-4.95833 v -41.12502 q 0,-2.33334 0.692708,-3.79167 0.692709,-1.49479 2.151043,-2.15104 1.494792,-0.69271 3.791669,-0.69271 h 25.520845 q 2.58854,0 3.82813,1.16666 1.27604,1.13021 1.27604,2.98959 0,1.89583 -1.27604,3.0625 -1.23959,1.13021 -3.82813,1.13021 z m 31.20835,37.04168 -8.56771,-34.0521 v 36.89586 q 0,3.0625 -1.38542,4.59375 -1.34896,1.53125 -3.60938,1.53125 -2.1875,0 -3.57292,-1.49479 -1.38541,-1.53126 -1.38541,-4.63021 v -42.29169 q 0,-3.5 1.82291,-4.70313 1.82292,-1.23958 4.92188,-1.23958 h 3.35417 q 3.02604,0 4.375,0.54687 1.38542,0.54688 2.04167,1.96875 0.65625,1.42188 1.49479,4.63021 l 7.76563,29.27606 7.76563,-29.27606 q 0.83854,-3.20833 1.49479,-4.63021 0.65625,-1.42187 2.00521,-1.96875 1.38542,-0.54687 4.41146,-0.54687 h 3.35417 q 3.09896,0 4.92188,1.23958 1.82291,1.20313 1.82291,4.70313 v 42.29169 q 0,3.0625 -1.38541,4.59375 -1.34896,1.53125 -3.64584,1.53125 -2.15104,0 -3.53646,-1.53125 -1.38542,-1.53125 -1.38542,-4.59375 v -36.89586 l -8.56771,34.0521 q -0.83854,3.31771 -1.38542,4.88542 -0.51041,1.53125 -1.93229,2.8073 -1.42187,1.27604 -3.9375,1.27604 -1.89583,0 -3.20833,-0.83854 -1.31251,-0.80209 -2.04167,-2.07813 -0.72917,-1.27604 -1.16667,-2.80729 -0.40104,-1.56771 -0.83854,-3.2448 z"
       id="text1"
       style="font-size:74.6667px;font-family:'Arial Rounded MT Bold';-inkscape-font-specification:'Arial Rounded MT Bold, ';white-space:pre;fill:#ffffff;stroke-width:0.4"
       transform="matrix(0.53561959,0,0,0.53317089,13.359824,-21.139165)"
       aria-label="FM" />
    <rect
       style="fill:#ffffff;stroke-width:0.0992649"
       id="rect3"
       width="21.131952"
       height="3.5952172"
       x="112.14777"
       y="172.51358"
       rx="0.34021428" />
    <rect
       style="fill:#ffffff;stroke-width:0.0992649"
       id="rect3-1"
       width="21.131952"
       height="3.5952172"
       x="33.956921"
       y="172.23842"
       rx="0.34021428" />
  </g>
</svg>
