<?xml version="1.0" encoding="UTF-8" standalone="no"?>
<!-- Generator: Adobe Illustrator 27.5.0, SVG Export Plug-In . SVG Version: 6.00 Build 0)  -->

<svg
   version="1.1"
   x="0px"
   y="0px"
   viewBox="0 0 1026.8562 389.85661"
   xml:space="preserve"
   id="svg6"
   sodipodi:docname="logo.svg"
   width="1026.8562"
   height="389.8566"
   inkscape:version="1.4 (86a8ad7, 2024-10-11)"
   xmlns:inkscape="http://www.inkscape.org/namespaces/inkscape"
   xmlns:sodipodi="http://sodipodi.sourceforge.net/DTD/sodipodi-0.dtd"
   xmlns:xlink="http://www.w3.org/1999/xlink"
   xmlns="http://www.w3.org/2000/svg"
   xmlns:svg="http://www.w3.org/2000/svg"><defs
   id="defs6"><linearGradient
     id="linearGradient1"
     inkscape:collect="always"><stop
       style="stop-color:#ffe680;stop-opacity:1"
       offset="0"
       id="stop1" /><stop
       style="stop-color:#ffffff;stop-opacity:1"
       offset="1"
       id="stop2" /></linearGradient><rect
     x="623.86395"
     y="289.06305"
     width="451.97537"
     height="131.42743"
     id="rect6" /><rect
     x="623.86395"
     y="289.06305"
     width="451.97537"
     height="131.42743"
     id="rect6-9" /><linearGradient
     inkscape:collect="always"
     xlink:href="#linearGradient1"
     id="linearGradient2"
     x1="459.04117"
     y1="739.38409"
     x2="579.28357"
     y2="55.480682"
     gradientUnits="userSpaceOnUse"
     gradientTransform="matrix(0.7779608,0,0,1,152.28979,0)" /></defs><sodipodi:namedview
   id="namedview6"
   pagecolor="#ffffff"
   bordercolor="#000000"
   borderopacity="0.25"
   inkscape:showpageshadow="2"
   inkscape:pageopacity="0.0"
   inkscape:pagecheckerboard="0"
   inkscape:deskcolor="#d1d1d1"
   showguides="false"
   inkscape:zoom="0.8666667"
   inkscape:cx="512.30767"
   inkscape:cy="382.49999"
   inkscape:window-width="1920"
   inkscape:window-height="991"
   inkscape:window-x="-9"
   inkscape:window-y="-9"
   inkscape:window-maximized="1"
   inkscape:current-layer="svg6"><sodipodi:guide
     position="115.59685,348.29753"
     orientation="0,-1"
     id="guide7"
     inkscape:locked="false" /><sodipodi:guide
     position="116.17378,334.66763"
     orientation="0,-1"
     id="guide8"
     inkscape:locked="false" /></sodipodi:namedview>


<g
   inkscape:groupmode="layer"
   id="layer1"
   inkscape:label="fond"
   transform="translate(-2.6456332,-2.1097236)"><rect
     style="fill:url(#linearGradient2);fill-opacity:1;stroke-width:0"
     id="rect1"
     width="1026.8562"
     height="389.8566"
     x="2.6456332"
     y="2.1097236" /></g><path
   style="fill:#ff7f2a;fill-opacity:1;stroke:#008000;stroke-width:0.4;stroke-dasharray:none"
   d="m 140.68312,337.71559 -5.57771,-10.68348 39.05425,0.29406 75.45103,-0.20956 0.0806,2.57065 -76.82316,0.14707 c -1.66444,2.90195 -3.17228,5.76711 -4.91785,8.62049 z"
   id="path7-4-2-42-6-8-7-1"
   sodipodi:nodetypes="cccccccc" /><path
   style="fill:#ff7f2a;fill-opacity:1;stroke:#008000;stroke-width:0.4;stroke-dasharray:none"
   d="m 120.34964,298.0437 -5.57771,-10.68348 81.5358,0.29406 13.34122,-0.20956 0.0806,2.57065 -14.71335,0.14707 c -1.66444,2.90195 -3.17228,5.76711 -4.91785,8.62049 z"
   id="path7-4-2-42-6-8-7"
   sodipodi:nodetypes="cccccccc" /><path
   style="fill:#ff7f2a;fill-opacity:1;stroke:#008000;stroke-width:0.4;stroke-dasharray:none"
   d="m 131.03733,319.56058 -5.57771,-10.68348 59.5067,0.29406 28.02728,-0.20956 0.0806,2.57065 -29.39941,0.14707 c -1.66444,2.90195 -3.17228,5.76711 -4.91785,8.62049 z"
   id="path7-4-2-42-6-8-7-6"
   sodipodi:nodetypes="cccccccc" /><path
   style="fill:#ff7f2a;fill-opacity:1;stroke:none;stroke-width:0.4;stroke-dasharray:none"
   d="m 69.882277,183.77648 -4.34976,9.10441 2.14567,3.36864 180.971643,0.51072 3.16286,-5.25715 -1.15267,-2.29693 655.34273,-0.82082 0.1548,-4.38018 z"
   id="path7-4-8"
   sodipodi:nodetypes="ccccccccc" /><g
   id="g8"
   style="stroke:none"
   transform="translate(-302.54256,-501.16908)"><path
     style="fill:#ff7f2a;fill-opacity:1;stroke:none;stroke-width:0.4;stroke-dasharray:none"
     d="m 433.77712,564.34156 -5.56745,10.68348 56.74802,-0.29406 -4.46894,-7.35306 83.90786,-0.53672 -0.11434,-3.65903 z"
     id="path7-4-2-5-15"
     sodipodi:nodetypes="ccccccc" /><path
     style="fill:#ff7f2a;fill-opacity:1;stroke:none;stroke-width:0.4;stroke-dasharray:none"
     d="m 456.12047,523.69809 -5.48854,9.94798 10.97708,-0.11434 -3.43034,-6.17461 84.95801,-0.22869 -0.11434,-3.65903 z m 37.90187,2.77131 z"
     id="path7"
     sodipodi:nodetypes="ccccccc" /><path
     style="fill:#ff7f2a;fill-opacity:1;stroke:none;stroke-width:0.4;stroke-dasharray:none"
     d="m 446.26372,542.49152 -5.94592,11.09143 32.66548,0.68607 -4.16298,-7.31806 88.91701,-0.57172 -0.11434,-3.65903 z"
     id="path7-4"
     sodipodi:nodetypes="ccccccc" /><path
     style="fill:#ff7f2a;fill-opacity:1;stroke:none;stroke-width:0.4;stroke-dasharray:none"
     d="m 378.41148,667.58833 -4.55784,10.68348 170.06013,-0.29406 -4.46894,-7.92998 88.57132,0.0402 -0.11434,-3.65903 z"
     id="path7-4-2"
     sodipodi:nodetypes="ccccccc" /><path
     style="fill:#ff7f2a;fill-opacity:1;stroke:none;stroke-width:0.4;stroke-dasharray:none"
     d="m 390.64929,646.45644 -5.57771,10.68348 146.63706,-0.29406 -4.83716,-7.92998 38.53739,0.0402 -0.11434,-3.65903 z"
     id="path7-4-2-4"
     sodipodi:nodetypes="ccccccc" /><path
     style="fill:#ff7f2a;fill-opacity:1;stroke:none;stroke-width:0.4;stroke-dasharray:none"
     d="m 412.31275,604.93721 -5.56745,10.68348 101.36782,-0.29406 -4.46894,-7.35306 70.63863,-0.53672 -0.11434,-3.65903 z"
     id="path7-4-2-5"
     sodipodi:nodetypes="ccccccc" /><path
     style="fill:#ff7f2a;fill-opacity:1;stroke:none;stroke-width:0.4;stroke-dasharray:none"
     d="m 423.81494,584.55309 -5.77142,10.68348 78.90455,-0.29406 -4.46894,-7.35306 82.15786,-0.53672 -0.11434,-3.65903 z"
     id="path7-4-2-5-1"
     sodipodi:nodetypes="ccccccc" /><path
     style="fill:#ff7f2a;fill-opacity:1;stroke:none;stroke-width:0.4;stroke-dasharray:none"
     d="m 401.50347,625.37039 -5.56745,10.68348 123.70435,-0.29406 -4.61317,-7.92998 58.97517,0.0402 -0.11434,-3.65903 z"
     id="path7-4-2-5-7"
     sodipodi:nodetypes="ccccccc" /></g><g
   id="g8-2"
   transform="matrix(1,0,0,-1,-301.97783,883.03412)"
   style="stroke:none"><path
     style="fill:#ff7f2a;fill-opacity:1;stroke:none;stroke-width:0.4;stroke-dasharray:none"
     d="m 378.41148,667.58833 -5.57771,10.68348 171.08,-0.29406 85.31463,0.20956 0.0806,-2.57065 -86.68676,-0.14707 c -1.66444,-2.90195 -3.17228,-5.76711 -4.91785,-8.62049 z"
     id="path7-4-2-42"
     sodipodi:nodetypes="cccccccc" /><path
     style="fill:#ff7f2a;fill-opacity:1;stroke:none;stroke-width:0.4;stroke-dasharray:none"
     d="m 390.03188,646.86223 -5.57771,10.68348 147.01118,-0.29406 75.72789,0.20956 0.0806,-2.57065 -77.10002,-0.14707 c -1.66444,-2.90195 -3.17228,-5.76711 -4.91785,-8.62049 z"
     id="path7-4-2-42-6"
     sodipodi:nodetypes="cccccccc" /><path
     style="fill:#ff7f2a;fill-opacity:1;stroke:none;stroke-width:0.4;stroke-dasharray:none"
     d="m 400.79243,625.3045 -5.57771,10.68348 124.57413,-0.29406 76.36891,0.20956 0.0806,-2.57065 -77.12912,-0.14707 c -1.66444,-2.90195 -3.17228,-5.76711 -4.91785,-8.62049 z"
     id="path7-4-2-42-6-8"
     sodipodi:nodetypes="cccccccc" /><path
     style="fill:#ff7f2a;fill-opacity:1;stroke:none;stroke-width:0.4;stroke-dasharray:none"
     d="m 411.54457,605.34943 -5.57771,10.68348 102.54503,-0.29406 18.0326,0.20956 0.0806,-2.57065 -18.79281,-0.14707 c -1.66444,-2.90195 -3.17228,-5.76711 -4.91785,-8.62049 z"
     id="path7-4-2-42-6-8-5"
     sodipodi:nodetypes="cccccccc" /><path
     style="fill:#ff7f2a;fill-opacity:1;stroke:none;stroke-width:0.4;stroke-dasharray:none"
     d="m 448.52081,535.59405 16.68549,-0.29406 82.88291,0.20956 0.0806,-2.57065 -84.561,-0.14707 c -2.40072,-4.42165 -4.68044,-9.14221 -7.27618,-13.45052 z"
     id="path7-4-2-42-6-8-7-8"
     sodipodi:nodetypes="ccccccc" /></g><path
   style="font-size:74.6667px;font-family:'arial black';-inkscape-font-specification:'arial black, ';white-space:pre;fill:#03800a;stroke-width:1.752"
   d="m 205.51513,223.86939 h 82.16711 v 24.75178 h -27.56805 v 75.48612 h -27.03101 v -75.48612 h -27.56805 z m 87.77621,27.62353 h 22.73468 v 11.89727 q 3.28192,-7.72638 6.74283,-10.59814 3.52061,-2.94013 8.65231,-2.94013 5.37041,0 11.75522,3.82901 l -7.51856,19.82878 q -4.29632,-2.05125 -6.80252,-2.05125 -4.77367,0 -7.39921,4.51275 -3.75928,6.35889 -3.75928,23.79455 v 24.34153 h -24.40547 z m 126.32371,43.21307 h -48.69161 q 0.65638,6.70077 3.16256,9.98277 3.52059,4.71787 9.18936,4.71787 3.58026,0 6.8025,-2.05125 1.96914,-1.29913 4.23664,-4.58113 l 23.92812,2.52988 q -5.48974,10.94002 -13.24698,15.72627 -7.75725,4.71789 -22.25733,4.71789 -12.5906,0 -19.8108,-4.03413 -7.22021,-4.1025 -11.9939,-12.92289 -4.71402,-8.88878 -4.71402,-20.85442 0,-17.0254 9.48771,-27.55516 9.54737,-10.52977 26.31496,-10.52977 13.605,0 21.4816,4.71789 7.87658,4.71787 11.99388,13.67502 4.11731,8.95713 4.11731,23.3159 z m -24.70384,-13.33314 q -0.71605,-8.06828 -3.81894,-11.5554 -3.04324,-3.48713 -8.05561,-3.48713 -5.78809,0 -9.24901,5.26489 -2.20783,3.28201 -2.80454,9.77764 z m 36.75741,-57.50346 h 24.28614 v 18.93989 h -24.28614 z m 0,27.62353 h 24.28614 v 72.61437 h -24.28614 z m 87.06014,44.23869 23.09271,3.00851 q -1.90946,8.27339 -6.26545,14.35877 -4.35599,6.01702 -11.1585,9.3674 -6.74284,3.35038 -17.18528,3.35038 -10.08442,0 -16.82725,-2.11963 -6.68317,-2.18801 -11.51653,-6.97426 -4.83335,-4.85465 -7.57823,-11.35027 -2.74487,-6.49563 -2.74487,-17.23052 0,-11.21352 3.34159,-18.66641 2.44651,-5.47001 6.68315,-9.77765 4.23665,-4.376 8.71199,-6.49563 7.10085,-3.35038 18.19969,-3.35038 15.51448,0 23.62974,6.35889 8.17496,6.35887 11.45687,18.59803 l -22.85404,3.48712 q -1.07408,-4.64949 -3.93829,-6.97426 -2.80454,-2.39312 -7.57823,-2.39312 -6.02679,0 -9.78606,4.99138 -3.69961,4.923 -3.69961,14.97415 0,8.95713 3.69961,13.60664 3.69961,4.64951 9.42803,4.64951 4.7737,0 7.99593,-2.80337 3.28192,-2.80339 4.89303,-8.61528 z m 32.16275,-71.86222 h 24.28613 v 36.92256 q 4.95271,-5.88027 9.84574,-8.41015 4.89303,-2.52988 11.57619,-2.52988 9.90541,0 15.57416,6.90588 5.72842,6.9059 5.72842,21.19629 v 46.1532 h -24.40547 v -39.93107 q 0,-6.8375 -2.20783,-9.64089 -2.20784,-2.87176 -6.2058,-2.87176 -4.41567,0 -7.16053,3.82901 -2.74488,3.82901 -2.74488,13.7434 v 34.87131 h -24.28613 z m 74.29052,27.62353 h 25.30055 l 12.29224,46.01645 12.70995,-46.01645 h 24.52484 l -26.91168,72.61437 h -21.54127 z m 82.76384,-27.62353 h 24.28614 v 18.93989 h -24.28614 z m 0,27.62353 h 24.28614 v 72.61437 h -24.28614 z m 40.63602,-27.62353 h 24.34582 v 100.2379 h -24.34582 z m 40.69569,0 h 24.34581 v 100.2379 h -24.34581 z m 110.21257,70.8366 h -48.69173 q 0.65648,6.70077 3.16263,9.98277 3.5206,4.71787 9.1893,4.71787 3.5803,0 6.8026,-2.05125 1.9691,-1.29913 4.2366,-4.58113 l 23.9281,2.52988 q -5.4898,10.94002 -13.2469,15.72627 -7.7573,4.71789 -22.2574,4.71789 -12.59055,0 -19.81082,-4.03413 -7.22011,-4.1025 -11.99385,-12.92289 -4.714,-8.88878 -4.714,-20.85442 0,-17.0254 9.48774,-27.55516 9.54732,-10.52977 26.31493,-10.52977 13.605,0 21.4816,4.71789 7.8766,4.71787 11.9938,13.67502 4.1174,8.95713 4.1174,23.3159 z m -24.7039,-13.33314 q -0.716,-8.06828 -3.8189,-11.5554 -3.0432,-3.48713 -8.0556,-3.48713 -5.7882,0 -9.2491,5.26489 -2.20775,3.28201 -2.80449,9.77764 z"
   id="text6"
   aria-label="Treichville" /><path
   style="font-weight:bold;font-size:123.452px;font-family:arial;-inkscape-font-specification:'arial Bold';fill:#000000;stroke-width:0.661349"
   d="M 275.23403,151.6444 V 53.723424 h 33.89086 q 12.78387,0 18.55022,2.671787 5.82074,2.604991 9.30231,9.351253 3.48157,6.746261 3.48157,15.429567 0,11.02112 -5.27676,18.234944 -5.27675,7.147035 -15.77584,9.017285 5.22235,3.7405 8.59512,8.21574 3.42716,4.47525 9.19351,15.89714 l 9.7375,19.10326 h -19.25741 l -11.64149,-21.30749 q -6.20154,-11.42189 -8.48631,-14.36085 -2.28478,-3.00577 -4.84156,-4.07448 -2.55677,-1.13551 -8.10551,-1.13551 h -3.26397 v 40.87833 z m 16.10224,-56.508284 h 11.91348 q 11.58709,0 14.47026,-1.202303 2.88317,-1.202305 4.51515,-4.14127 1.63199,-2.938965 1.63199,-7.347413 0,-4.942805 -2.17598,-7.948565 -2.12159,-3.072555 -6.03834,-3.874091 -1.95838,-0.333973 -11.75028,-0.333973 H 291.33627 Z M 427.55252,151.6444 H 410.0359 l -6.96314,-22.24261 h -31.87808 l -6.58233,22.24261 H 347.53092 L 378.593,53.723424 h 17.02704 z m -29.6477,-38.7409 -10.98869,-36.336301 -10.7711,36.336301 z m 38.13402,-59.180076 h 29.43011 q 9.9551,0 15.17745,1.87025 7.01753,2.538197 12.02228,9.01728 5.00475,6.479082 7.61593,15.89713 2.61117,9.351253 2.61117,23.110956 0,12.08983 -2.44797,20.83994 -2.99198,10.68715 -8.54072,17.29982 -4.18876,5.0096 -11.31509,7.81498 -5.33115,2.07062 -14.25266,2.07062 h -30.3005 z m 16.10224,16.565077 v 64.857629 h 12.02228 q 6.74554,0 9.73751,-0.93513 3.91676,-1.20231 6.47353,-4.07448 2.61118,-2.87217 4.24316,-9.41804 1.63198,-6.61267 1.63198,-17.96777 0,-11.355095 -1.63198,-17.43341 -1.63198,-6.078314 -4.56955,-9.484842 -2.93757,-3.406528 -7.45274,-4.608832 -3.37276,-0.935125 -13.21907,-0.935125 z M 516.06045,151.6444 V 53.723424 h 16.10224 V 151.6444 Z m 28.17893,-48.35933 q 0,-14.96201 3.64476,-25.114799 2.71998,-7.481002 7.39833,-13.425727 4.73275,-5.944726 10.33589,-8.816896 7.45274,-3.874091 17.19023,-3.874091 17.62543,0 28.17893,13.425728 10.60789,13.425727 10.60789,37.338225 0,23.7121 -10.49909,37.13783 -10.4991,13.35894 -28.07012,13.35894 -17.78863,0 -28.28773,-13.29214 -10.49909,-13.35893 -10.49909,-36.73707 z m 16.59183,-0.66795 q 0,16.63187 6.25594,25.24838 6.25594,8.54972 15.88465,8.54972 9.62869,0 15.77584,-8.48292 6.20154,-8.54972 6.20154,-25.58236 0,-16.832256 -6.03835,-25.114794 -5.98393,-8.282538 -15.93903,-8.282538 -9.95511,0 -16.04784,8.416127 -6.09275,8.349334 -6.09275,25.248385 z"
   id="text8"
   aria-label="RADIO" /><path
   style="font-size:64.1937px;font-family:'Arial Rounded MT Bold';-inkscape-font-specification:'Arial Rounded MT Bold, ';fill:#000000;stroke-width:0.343895"
   d="M 692.70951,90.853455 H 669.7813 v 9.400305 h 19.16564 q 2.66515,0 3.95854,0.77709 1.33258,0.75203 1.33258,2.03047 0,1.27844 -1.33258,2.03046 -1.33257,0.75203 -3.95854,0.75203 H 669.7813 v 12.10759 q 0,2.3062 -1.64613,3.43424 -1.60693,1.10297 -4.15452,1.10297 -2.58677,0 -4.23289,-1.12803 -1.60694,-1.12804 -1.60694,-3.40918 V 89.675288 q 0,-1.604323 0.74468,-2.60702 0.74467,-1.027768 2.31242,-1.47898 1.60694,-0.476285 4.07612,-0.476285 h 27.43547 q 2.78275,0 4.11532,0.802162 1.37178,0.77709 1.37178,2.055529 0,1.30351 -1.37178,2.105671 -1.33257,0.77709 -4.11532,0.77709 z m 33.54967,25.468565 -9.21048,-23.413028 v 25.368278 q 0,2.10567 -1.48936,3.15851 -1.45016,1.05283 -3.88015,1.05283 -2.35162,0 -3.84097,-1.02777 -1.48936,-1.05283 -1.48936,-3.18357 V 89.199004 q 0,-2.406477 1.95968,-3.233703 1.95967,-0.852298 5.29112,-0.852298 h 3.60581 q 3.25306,0 4.70322,0.376014 1.48936,0.376013 2.19484,1.353645 0.70548,0.977633 1.60694,3.183568 l 8.34822,20.12919 8.34822,-20.12919 q 0.90146,-2.205935 1.60694,-3.183568 0.70548,-0.977632 2.15564,-1.353645 1.48935,-0.376014 4.74241,-0.376014 h 3.60582 q 3.33144,0 5.29112,0.852298 1.95967,0.827226 1.95967,3.233703 v 29.078266 q 0,2.10567 -1.48935,3.15851 -1.45016,1.05283 -3.91935,1.05283 -2.31242,0 -3.80177,-1.05283 -1.48936,-1.05284 -1.48936,-3.15851 V 92.908992 l -9.21047,23.413028 q -0.90146,2.28113 -1.48936,3.35903 -0.54871,1.05284 -2.07726,1.9302 -1.52855,0.87736 -4.2329,0.87736 -2.03806,0 -3.44903,-0.57655 -1.41096,-0.55148 -2.19484,-1.42884 -0.78387,-0.87737 -1.25419,-1.9302 -0.43113,-1.0779 -0.90145,-2.231 z"
   id="text9"
   aria-label="FM" /><path
   style="font-size:55.2306px;font-family:'Arial Rounded MT Bold';-inkscape-font-specification:'Arial Rounded MT Bold, ';stroke-width:0.295879"
   d="m 804.49839,107.69401 q -1.7799,2.10351 -3.99128,3.18224 -2.18441,1.05175 -4.85425,1.05175 -2.535,0 -4.74638,-0.97085 -2.18441,-0.99782 -3.8025,-2.75074 -1.59111,-1.7799 -2.45409,-4.12612 -0.86298,-2.37319 -0.86298,-4.962121 0,-2.777711 0.97085,-5.258773 0.97085,-2.50803 2.77771,-4.341858 1.80686,-1.833829 4.28792,-2.858615 2.50804,-1.024787 5.52846,-1.024787 3.47888,0 6.20265,1.267499 2.72378,1.267499 4.58457,3.694625 1.8608,2.400158 2.85862,6.067815 0.99782,3.667655 0.99782,8.306165 0,5.17787 -1.05176,9.14217 -1.05175,3.93734 -3.07436,6.63415 -1.99563,2.66984 -4.80031,3.99127 -2.80468,1.29447 -6.36447,1.29447 -3.50584,0 -6.09478,-1.32144 -2.58893,-1.3484 -3.93734,-3.31707 -1.3484,-1.99564 -1.3484,-3.82946 0,-1.13266 0.83601,-2.02261 0.83601,-0.88995 2.13048,-0.88995 1.18659,0 2.13048,0.67421 0.94388,0.64723 1.4293,1.96867 0.5933,1.61808 1.96867,2.6159 1.37537,0.97085 3.10133,0.97085 1.53718,0 2.91255,-0.78208 1.37537,-0.78207 2.34622,-2.21138 1.9417,-2.88558 2.31926,-10.19393 z m -0.62027,-8.252224 q 0,-1.833829 -0.51239,-3.371008 -0.48543,-1.564148 -1.40234,-2.696807 -0.88995,-1.132659 -2.15745,-1.779892 -1.24053,-0.647234 -2.72377,-0.647234 -2.56197,0 -4.34186,2.211382 -1.77989,2.184413 -1.77989,5.798134 0,3.586749 1.77989,5.717229 1.77989,2.13048 4.50367,2.13048 1.67202,0 3.18223,-0.86298 1.53718,-0.88995 2.48106,-2.56197 0.97085,-1.67202 0.97085,-3.937334 z m 26.07812,2.103504 q 2.48106,0 4.26096,-1.45627 1.80686,-1.456276 1.80686,-4.180051 0,-2.076541 -1.42931,-3.559784 -1.42931,-1.510212 -3.85644,-1.510212 -1.64505,0 -2.72377,0.458457 -1.05175,0.458457 -1.67202,1.213563 -0.62027,0.755106 -1.18659,1.941701 -0.53937,1.186595 -0.99782,2.238349 -0.26968,0.56633 -0.97085,0.889946 -0.70117,0.323617 -1.61809,0.323617 -1.07872,0 -1.99563,-0.862978 -0.88995,-0.889946 -0.88995,-2.346222 0,-1.402339 0.83601,-2.939519 0.86298,-1.564148 2.48106,-2.966487 1.64505,-1.402339 4.07218,-2.23835 2.42713,-0.862978 5.42058,-0.862978 2.6159,0 4.77335,0.728138 2.15744,0.70117 3.74856,2.049573 1.59112,1.348403 2.40016,3.128296 0.80904,1.779892 0.80904,3.829465 0,2.696807 -1.1866,4.638506 -1.15962,1.91473 -3.34404,3.74856 2.10351,1.13266 3.53282,2.58894 1.45628,1.45627 2.18441,3.23616 0.72814,1.75293 0.72814,3.8025 0,2.4541 -0.99782,4.74638 -0.97085,2.29229 -2.88558,4.09915 -1.91473,1.77989 -4.5576,2.80468 -2.61591,0.99781 -5.79814,0.99781 -3.23616,0 -5.79813,-1.15962 -2.56197,-1.15963 -4.23399,-2.88559 -1.64505,-1.75292 -2.50803,-3.61372 -0.83601,-1.86079 -0.83601,-3.07436 0,-1.56414 0.99782,-2.50803 1.02479,-0.97085 2.535,-0.97085 0.75511,0 1.45627,0.45846 0.70117,0.43149 0.91692,1.05176 1.40234,3.74856 2.99345,5.58239 1.61809,1.80686 4.53064,1.80686 1.67202,0 3.2092,-0.80905 1.56415,-0.83601 2.56197,-2.45409 1.02478,-1.61808 1.02478,-3.74856 0,-3.15526 -1.72595,-4.93516 -1.72596,-1.80686 -4.80032,-1.80686 -0.53936,0 -1.67202,0.10787 -1.13266,0.10788 -1.45628,0.10788 -1.48324,0 -2.29228,-0.72814 -0.80904,-0.75511 -0.80904,-2.07654 0,-1.29447 0.97085,-2.07654 0.97085,-0.80905 2.88558,-0.80905 z m 26.37477,24.54094 q -1.67202,0 -2.88558,-1.07872 -1.21357,-1.07872 -1.21357,-3.02042 0,-1.64505 1.15963,-2.83165 1.15963,-1.18659 2.85862,-1.18659 1.69898,0 2.88558,1.18659 1.21356,1.15963 1.21356,2.83165 0,1.91473 -1.21356,3.02042 -1.1866,1.07872 -2.80468,1.07872 z m 18.60796,-22.05987 q 1.83383,-2.18442 3.99128,-3.23617 2.15744,-1.051755 4.82728,-1.051755 2.56197,0 4.71941,0.970845 2.18442,0.94389 3.8025,2.72378 1.64505,1.75292 2.535,4.15308 0.88995,2.40016 0.88995,5.01606 0,3.8025 -1.75293,6.90383 -1.72595,3.10132 -4.85425,4.85425 -3.10133,1.72595 -7.03867,1.72595 -4.53063,0 -7.82073,-2.21138 -3.29011,-2.21138 -5.04303,-6.52627 -1.72596,-4.34186 -1.72596,-10.59845 0,-5.09696 1.05176,-9.115205 1.05175,-4.018241 3.02042,-6.661112 1.96867,-2.64287 4.77335,-3.991273 2.80468,-1.348404 6.39143,-1.348404 3.45191,0 6.06781,1.348404 2.64287,1.348403 3.96431,3.34404 1.3484,1.995637 1.3484,3.829465 0,1.105691 -0.83601,2.022605 -0.83601,0.889946 -2.13048,0.889946 -1.13265,0 -2.1035,-0.70117 -0.97086,-0.728137 -1.42931,-1.995636 -0.62027,-1.618084 -1.96867,-2.588935 -1.3484,-0.997818 -3.1283,-0.997818 -1.4293,0 -2.85861,0.83601 -1.40234,0.809042 -2.37319,2.211381 -1.96867,2.858615 -2.31926,10.193932 z m 7.28138,16.74717 q 2.72378,0 4.50367,-2.21139 1.77989,-2.23835 1.77989,-5.85207 0,-2.45409 -0.83601,-4.20701 -0.83601,-1.7799 -2.29228,-2.69681 -1.45628,-0.94388 -3.2092,-0.94388 -1.67202,0 -3.2092,0.88994 -1.51021,0.88995 -2.4541,2.58894 -0.91691,1.67202 -0.91691,3.93734 0,3.64068 1.88776,6.06781 1.88777,2.42713 4.74638,2.42713 z"
   id="text11"
   aria-label="93.6" /></svg>
