<?xml version="1.0" encoding="UTF-8" standalone="no"?>
<!-- Generator: Adobe Illustrator 27.5.0, SVG Export Plug-In . SVG Version: 6.00 Build 0)  -->

<svg
   version="1.1"
   x="0px"
   y="0px"
   viewBox="0 0 899.99994 380.76924"
   xml:space="preserve"
   id="svg6"
   sodipodi:docname="logo.svg"
   width="899.99994"
   height="380.76923"
   inkscape:version="1.4 (86a8ad7, 2024-10-11)"
   xmlns:inkscape="http://www.inkscape.org/namespaces/inkscape"
   xmlns:sodipodi="http://sodipodi.sourceforge.net/DTD/sodipodi-0.dtd"
   xmlns="http://www.w3.org/2000/svg"
   xmlns:svg="http://www.w3.org/2000/svg"><defs
   id="defs6"><rect
     x="623.86395"
     y="289.06305"
     width="451.97537"
     height="131.42743"
     id="rect6" /><rect
     x="623.86395"
     y="289.06305"
     width="451.97537"
     height="131.42743"
     id="rect6-9" /></defs><sodipodi:namedview
   id="namedview6"
   pagecolor="#ffffff"
   bordercolor="#000000"
   borderopacity="0.25"
   inkscape:showpageshadow="2"
   inkscape:pageopacity="0.0"
   inkscape:pagecheckerboard="0"
   inkscape:deskcolor="#d1d1d1"
   showguides="false"
   inkscape:zoom="0.8666667"
   inkscape:cx="447.69229"
   inkscape:cy="379.03845"
   inkscape:window-width="1920"
   inkscape:window-height="991"
   inkscape:window-x="-9"
   inkscape:window-y="-9"
   inkscape:window-maximized="1"
   inkscape:current-layer="layer3"><sodipodi:guide
     position="51.289156,351.75907"
     orientation="0,-1"
     id="guide7"
     inkscape:locked="false" /><sodipodi:guide
     position="51.866086,338.12917"
     orientation="0,-1"
     id="guide8"
     inkscape:locked="false" /></sodipodi:namedview>


<g
   inkscape:groupmode="layer"
   id="layer3"
   inkscape:label="fond"
   transform="translate(-64.307693,-3.4615383)"><rect
     style="fill:#ffffff;stroke:#ffffff;stroke-width:0"
     id="rect15"
     width="899.99994"
     height="380.76923"
     x="64.307693"
     y="3.4615383"
     rx="53.560001" /></g><g
   id="g1"
   transform="translate(-77,3.4615387)"><path
     style="fill:#fec3c3"
     d="m 462.95727,278.52749 c 0,-0.26694 0.12744,-0.40657 0.28321,-0.3103 0.15577,0.0963 0.19692,0.31467 0.0914,0.48534 -0.26954,0.43612 -0.37465,0.38702 -0.37465,-0.17504 z m -6.23657,-5.13992 c -2.15198,-2.16201 -2.82323,-3.02901 -2.49305,-3.22011 0.24851,-0.14383 0.33458,-0.13271 0.19127,0.0247 -0.14331,0.15743 1.05356,1.60648 2.65972,3.22011 1.60615,1.61364 2.84528,2.93388 2.75361,2.93388 -0.0917,0 -1.49186,-1.33137 -3.11155,-2.95859 z m 2.27115,0.20859 -0.97903,-1.08333 1.08333,0.97903 c 1.00982,0.91259 1.23655,1.18763 0.97903,1.18763 -0.0574,0 -0.54486,-0.4875 -1.08333,-1.08333 z m 103.45847,-31.81104 c 0.24062,-0.0963 0.52812,-0.0845 0.63889,0.0263 0.11076,0.11076 -0.0861,0.18954 -0.4375,0.17507 -0.38832,-0.016 -0.4673,-0.095 -0.20139,-0.20139 z m 107.14583,-1.01948 c 1.2375,-0.0641 3.2625,-0.0641 4.5,0 1.2375,0.0641 0.225,0.11661 -2.25,0.11661 -2.475,0 -3.4875,-0.0525 -2.25,-0.11661 z m 106.97465,-0.003 c 8.92356,-0.0494 23.62356,-0.0494 32.66667,-4e-5 9.0431,0.0493 1.74201,0.0897 -16.22466,0.0897 -17.96666,2e-5 -25.36557,-0.0403 -16.44201,-0.0897 z M 267.76283,240.4298 c 4.2625,-0.0528 11.2375,-0.0528 15.5,0 4.2625,0.0528 0.775,0.0959 -7.75,0.0959 -8.525,0 -12.0125,-0.0432 -7.75,-0.0959 z m 50.00388,0.0139 c 0.41464,-0.0797 1.01464,-0.0767 1.33333,0.007 0.3187,0.0834 -0.0205,0.14866 -0.75388,0.14496 -0.73334,-0.004 -0.99409,-0.072 -0.57945,-0.15169 z m 81.49611,-0.009 c 0.87084,-0.0687 2.29584,-0.0687 3.16667,0 0.87083,0.0687 0.15833,0.12485 -1.58333,0.12485 -1.74167,0 -2.45417,-0.0562 -1.58334,-0.12485 z m 258.85416,0.0173 c 0.24063,-0.0963 0.52813,-0.0844 0.63889,0.0263 0.11077,0.11077 -0.0861,0.18955 -0.4375,0.17508 -0.38831,-0.016 -0.4673,-0.095 -0.20139,-0.20139 z m -460.02082,-0.3266 c 0.22917,-0.0925 0.60417,-0.0925 0.83333,0 0.22917,0.0925 0.0417,0.16813 -0.41666,0.16813 -0.45834,0 -0.64584,-0.0757 -0.41667,-0.16813 z m 126.02083,-0.007 c 0.24063,-0.0963 0.52813,-0.0845 0.63889,0.0263 0.11076,0.11076 -0.0861,0.18955 -0.4375,0.17507 -0.38831,-0.016 -0.4673,-0.095 -0.20139,-0.20138 z m 3.33333,-0.33334 c 0.24063,-0.0963 0.52813,-0.0845 0.63889,0.0263 0.11077,0.11076 -0.0861,0.18954 -0.4375,0.17507 -0.38831,-0.016 -0.4673,-0.095 -0.20139,-0.20139 z m 500.87166,-8.77229 c 0,-4.125 0.0478,-5.8125 0.10633,-3.75 0.0585,2.0625 0.0585,5.4375 0,7.5 -0.0585,2.0625 -0.10633,0.375 -0.10633,-3.75 z M 386.32796,227.3461 c 0,-5.775 0.0454,-8.1375 0.1009,-5.25 0.0555,2.8875 0.0555,7.6125 0,10.5 -0.0555,2.8875 -0.1009,0.525 -0.1009,-5.25 z m 196.85152,5.20748 c 0,-0.0692 0.2625,-0.33172 0.58334,-0.58333 0.52868,-0.41463 0.54047,-0.40284 0.12585,0.12585 -0.43546,0.55525 -0.70919,0.73183 -0.70919,0.45748 z m 3.16667,-3.20748 c 0.33183,-0.36667 0.67833,-0.66667 0.76999,-0.66667 0.0917,0 -0.10483,0.3 -0.43666,0.66667 -0.33182,0.36667 -0.67832,0.66667 -0.76999,0.66667 -0.0917,0 0.10483,-0.3 0.43666,-0.66667 z m -417.54251,-0.58333 c -0.41462,-0.52869 -0.40283,-0.54048 0.12586,-0.12586 0.55524,0.43546 0.73182,0.70919 0.45748,0.70919 -0.0692,0 -0.33172,-0.2625 -0.58334,-0.58333 z m 352.66666,-7.33334 c -0.41462,-0.52868 -0.40283,-0.54047 0.12585,-0.12585 0.32084,0.25162 0.58334,0.51412 0.58334,0.58333 0,0.27435 -0.27373,0.0978 -0.70919,-0.45748 z m -6.48915,-5.83333 -0.635,-0.75 0.75,0.635 c 0.70482,0.59673 0.90175,0.865 0.635,0.865 -0.0632,0 -0.40075,-0.3375 -0.75,-0.75 z m 313.31665,-3.75 c -0.001,-1.65 0.0553,-2.36703 0.12525,-1.59339 0.0699,0.77363 0.0707,2.12363 0.002,3 -0.0689,0.87636 -0.12609,0.24339 -0.1271,-1.40661 z m -318.63928,-1.25 -0.97903,-1.08333 1.08333,0.97903 c 1.00982,0.91259 1.23655,1.18763 0.97903,1.18763 -0.0574,0 -0.54487,-0.4875 -1.08333,-1.08333 z m 87.21395,-4.44445 c 0.016,-0.38831 0.095,-0.4673 0.20139,-0.20138 0.0963,0.24062 0.0844,0.52812 -0.0263,0.63888 -0.11076,0.11077 -0.18955,-0.0861 -0.17507,-0.4375 z m -394.6033,-5.03655 c 0.32432,-0.0845 0.77432,-0.0789 1,0.0123 0.22568,0.0913 -0.0397,0.16046 -0.58968,0.15367 -0.55,-0.007 -0.73464,-0.0815 -0.41032,-0.16602 z m 116.49754,-0.005 c 0.41464,-0.0797 1.01464,-0.0767 1.33333,0.007 0.3187,0.0834 -0.0205,0.14867 -0.75388,0.14497 -0.73334,-0.004 -0.99409,-0.072 -0.57945,-0.15169 z m 443.18865,-0.0142 c 11.70173,-0.0486 30.75173,-0.0486 42.33333,2e-5 11.5816,0.0486 2.00745,0.0883 -21.27588,0.0883 -23.28333,-1e-5 -32.75918,-0.0398 -21.05745,-0.0883 z m -265.94879,-3.83336 -3.32708,-3.41667 3.41666,3.32708 c 3.17342,3.0902 3.56821,3.50625 3.32708,3.50625 -0.0493,0 -1.58677,-1.5375 -3.41666,-3.41666 z M 367.309,195.84616 c 5.9e-4,-2.38333 0.0537,-3.3146 0.11799,-2.06947 0.0643,1.24512 0.0638,3.19512 -10e-4,4.33333 -0.0649,1.13821 -0.11751,0.11947 -0.11693,-2.26386 z m 248.94782,0.83333 c 0,-0.64166 0.0686,-0.90416 0.15244,-0.58333 0.0838,0.32083 0.0838,0.84583 0,1.16667 -0.0838,0.32083 -0.15244,0.0583 -0.15244,-0.58334 z m -461.69136,-0.33333 c 0,-0.45833 0.0757,-0.64583 0.16813,-0.41667 0.0925,0.22917 0.0925,0.60417 0,0.83334 -0.0925,0.22916 -0.16813,0.0417 -0.16813,-0.41667 z m 397.75972,-2.08333 -0.97903,-1.08334 1.08334,0.97903 c 1.00981,0.9126 1.23655,1.18764 0.97903,1.18764 -0.0574,0 -0.54487,-0.4875 -1.08334,-1.08333 z m -398.06835,-3.91667 c 0,-0.64167 0.0686,-0.90417 0.15244,-0.58333 0.0838,0.32083 0.0838,0.84583 0,1.16666 -0.0838,0.32084 -0.15244,0.0583 -0.15244,-0.58333 z m 390.73502,-3.08333 -0.97903,-1.08334 1.08333,0.97903 c 1.00982,0.9126 1.23655,1.18764 0.97903,1.18764 -0.0574,0 -0.54486,-0.4875 -1.08333,-1.08333 z m 283.18344,-4.51521 0.16248,-2.23479 0.10561,1.96524 c 0.0581,1.08089 -0.015,2.08655 -0.16248,2.2348 -0.14745,0.14825 -0.19497,-0.73611 -0.10561,-1.96525 z m -346.68041,0.34854 -1.14873,-1.25 1.25,1.14872 c 0.6875,0.6318 1.25,1.1943 1.25,1.25 0,0.25454 -0.28207,0.0147 -1.35127,-1.14872 z m 55.8303,-3.16667 -0.97903,-1.08333 1.08334,0.97903 c 1.00981,0.91259 1.23655,1.18764 0.97903,1.18764 -0.0574,0 -0.54487,-0.4875 -1.08334,-1.08334 z m -64.8303,-5.5 -1.14873,-1.25 1.25,1.14872 c 1.16348,1.06921 1.40327,1.35128 1.14873,1.35128 -0.0557,0 -0.61821,-0.5625 -1.25,-1.25 z m 355.77994,-0.58333 c 0.003,-0.91667 0.0672,-1.25211 0.14385,-0.74542 0.0766,0.50669 0.0746,1.25669 -0.005,1.66667 -0.0791,0.40998 -0.14181,-0.005 -0.1393,-0.92125 z m -298.28297,-0.91667 -0.97903,-1.08333 1.08333,0.97903 c 1.00982,0.91259 1.23655,1.18764 0.97903,1.18764 -0.0574,0 -0.54486,-0.4875 -1.08333,-1.08334 z m -7.33333,-7 -0.97903,-1.08333 1.08333,0.97903 c 1.00982,0.91259 1.23655,1.18763 0.97903,1.18763 -0.0574,0 -0.54487,-0.4875 -1.08333,-1.08333 z m 305.62085,-0.58333 c 0,-1.00834 0.0625,-1.42084 0.13886,-0.91667 0.0764,0.50417 0.0764,1.32917 0,1.83333 -0.0764,0.50417 -0.13886,0.0917 -0.13886,-0.91666 z m -673.97813,-2.16667 c 8.7e-4,-1.83333 0.0568,-2.5408 0.12439,-1.57216 0.0675,0.96865 0.0668,2.46865 -0.002,3.33334 -0.0684,0.86468 -0.12368,0.0721 -0.12281,-1.76118 z m 308.36256,1.75 -1.31765,-1.41667 1.41667,1.31765 c 1.31749,1.2254 1.56984,1.51569 1.31765,1.51569 -0.0545,0 -0.69196,-0.6375 -1.41667,-1.41667 z m 53.15712,-5.5 -0.8081,-0.91667 0.91667,0.80811 c 0.50416,0.44446 0.91666,0.85696 0.91666,0.91667 0,0.26142 -0.26993,0.0487 -1.02523,-0.80811 z m -63.49045,-4.5 -1.31765,-1.41667 1.41667,1.31765 c 0.77916,0.72471 1.41666,1.36221 1.41666,1.41667 0,0.25219 -0.29028,-1.6e-4 -1.51568,-1.31765 z m 57.15712,-1.5 -0.8081,-0.91667 0.91666,0.80811 c 0.50417,0.44446 0.91667,0.85696 0.91667,0.91667 0,0.26142 -0.26993,0.0487 -1.02523,-0.80811 z m 318.74452,-0.0833 c 0,-0.45834 0.0757,-0.64584 0.16813,-0.41667 0.0925,0.22917 0.0925,0.60417 0,0.83333 -0.0925,0.22917 -0.16813,0.0417 -0.16813,-0.41666 z m -673.94323,-3.83334 c 0.001,-1.28333 0.0617,-1.76748 0.13388,-1.07589 0.0722,0.69159 0.0709,1.74159 -0.003,2.33333 -0.0736,0.59174 -0.13267,0.0259 -0.13119,-1.25744 z m 349.19871,-1.75 -0.8081,-0.91666 0.91666,0.8081 c 0.50417,0.44446 0.91667,0.85696 0.91667,0.91667 0,0.26142 -0.26993,0.0487 -1.02523,-0.80811 z m 151.81206,-4.41666 c 0,-1.74167 0.0562,-2.45417 0.12485,-1.58334 0.0687,0.87084 0.0687,2.29584 0,3.16667 -0.0687,0.87083 -0.12485,0.15833 -0.12485,-1.58333 z m 153.30284,2.769 c 0.32432,-0.0845 0.77432,-0.079 1,0.0123 0.22568,0.0913 -0.0397,0.16046 -0.58968,0.15366 -0.55,-0.007 -0.73464,-0.0815 -0.41032,-0.16601 z m 11.84782,0.003 c 0.24063,-0.0963 0.52813,-0.0845 0.63889,0.0263 0.11076,0.11076 -0.0861,0.18955 -0.4375,0.17507 -0.38831,-0.016 -0.4673,-0.095 -0.20139,-0.20139 z m -378.78651,-1.52229 -1.31765,-1.41667 1.41667,1.31765 c 0.77917,0.72471 1.41667,1.36221 1.41667,1.41667 0,0.25219 -0.29029,-1.7e-4 -1.51569,-1.31765 z m -74.34792,-7.41667 c -3.8e-4,-3.11667 0.0497,-4.43653 0.11134,-2.93303 0.0616,1.5035 0.0619,4.0535 7e-4,5.66666 -0.0612,1.61317 -0.11165,0.38304 -0.11204,-2.73363 z m 129.83838,4.58333 -0.80811,-0.91666 0.91667,0.8081 c 0.50417,0.44446 0.91667,0.85696 0.91667,0.91667 0,0.26142 -0.26994,0.0487 -1.02523,-0.80811 z m 119.12511,-1.75 c 0,-1.00833 0.0625,-1.42083 0.13886,-0.91666 0.0764,0.50416 0.0764,1.32916 0,1.83333 -0.0764,0.50417 -0.13886,0.0917 -0.13886,-0.91667 z m -462.03489,-3.5 c 0.007,-0.55 0.0815,-0.73464 0.16601,-0.41032 0.0845,0.32432 0.079,0.77432 -0.0123,1 -0.0913,0.22568 -0.16045,-0.0397 -0.15366,-0.58968 z m 172.96133,-0.69444 c 0.016,-0.38831 0.095,-0.4673 0.20139,-0.20139 0.0963,0.24063 0.0844,0.52813 -0.0263,0.63889 -0.11076,0.11076 -0.18955,-0.0861 -0.17507,-0.4375 z m 163.11937,-0.55556 -0.97903,-1.08333 1.08334,0.97903 c 1.00982,0.91259 1.23655,1.18764 0.97903,1.18764 -0.0574,0 -0.54487,-0.4875 -1.08334,-1.08334 z m -60.65351,-2.33333 -2.65885,-2.75 2.75,2.65885 c 1.5125,1.46236 2.75,2.69986 2.75,2.75 0,0.24311 -0.3717,-0.10473 -2.84115,-2.65885 z m 186.86746,-0.44444 c 0.016,-0.38832 0.095,-0.4673 0.20139,-0.20139 0.0963,0.24062 0.0845,0.52812 -0.0263,0.63889 -0.11077,0.11076 -0.18955,-0.0861 -0.17508,-0.4375 z m -191.08881,-2.69993 c 0.24063,-0.0963 0.52813,-0.0845 0.63889,0.0263 0.11076,0.11076 -0.0861,0.18954 -0.4375,0.17507 -0.38831,-0.016 -0.4673,-0.095 -0.20139,-0.20139 z m -194.66107,-0.68895 c 16.56037,-0.0478 43.56037,-0.0478 60,1e-5 16.43963,0.0478 2.89024,0.0869 -30.10976,0.0869 -33,-1e-5 -46.4506,-0.0391 -29.89024,-0.0869 z m 494.14023,1e-5 c 18.2875,-0.0476 48.2125,-0.0476 66.5,0 18.2875,0.0476 3.325,0.0866 -33.25,0.0866 -36.575,0 -51.5375,-0.039 -33.25,-0.0866 z m -242.4346,-1.33336 -1.14873,-1.25 1.25,1.14873 c 1.16348,1.0692 1.40327,1.35127 1.14873,1.35127 -0.0557,0 -0.61821,-0.5625 -1.25,-1.25 z m -9.16441,-8.83333 -1.31765,-1.41667 1.41667,1.31765 c 1.31748,1.2254 1.56984,1.51569 1.31765,1.51569 -0.0545,0 -0.69196,-0.6375 -1.41667,-1.41667 z m -11.33018,-11 -1.65414,-1.75 1.75,1.65414 c 0.9625,0.90977 1.75,1.69727 1.75,1.75 0,0.24873 -0.30881,-0.028 -1.84586,-1.65414 z m -295.48746,-2.75 c 0.43058,-0.45833 0.85787,-0.83333 0.94954,-0.83333 0.0917,0 -0.18563,0.375 -0.61621,0.83333 -0.43058,0.45833 -0.85787,0.83333 -0.94954,0.83333 -0.0917,0 0.18563,-0.375 0.61621,-0.83333 z m 189.62414,-0.75 c -0.41462,-0.52869 -0.40283,-0.54048 0.12585,-0.12585 0.55525,0.43546 0.73183,0.70918 0.45749,0.70918 -0.0692,0 -0.33172,-0.2625 -0.58334,-0.58333 z m -187.62414,-1.25 c 0.43058,-0.45833 0.85787,-0.83333 0.94954,-0.83333 0.0917,0 -0.18563,0.375 -0.61621,0.83333 -0.43058,0.45833 -0.85787,0.83333 -0.94954,0.83333 -0.0917,0 0.18563,-0.375 0.61621,-0.83333 z m 184.62414,-1.75 c -0.41462,-0.52869 -0.40283,-0.54048 0.12585,-0.12585 0.32084,0.25161 0.58334,0.51411 0.58334,0.58333 0,0.27435 -0.27373,0.0978 -0.70919,-0.45748 z m 100.66667,-1.33333 c -0.41463,-0.528688 -0.40284,-0.540479 0.12585,-0.125855 0.55525,0.435455 0.73182,0.709185 0.45748,0.709185 -0.0692,0 -0.33172,-0.2625 -0.58333,-0.58333 z m 58.20918,-12.41667 c 2.74541,-2.75 5.06666,-5 5.15833,-5 0.0917,0 -2.07958,2.25 -4.825,5 -2.74541,2.75 -5.06666,5 -5.15833,5 -0.0917,0 2.07958,-2.25 4.825,-5 z m -8.70087,0 c 0,-2.658334 0.0518,-3.745834 0.11504,-2.416667 0.0633,1.329167 0.0633,3.504167 0,4.833334 -0.0633,1.329166 -0.11504,0.241666 -0.11504,-2.416667 z m -273.88246,2.416687 c 17.27917,-0.04771 45.55417,-0.04771 62.83334,0 17.27916,0.04771 3.14166,0.08675 -31.41667,0.08675 -34.55833,0 -48.69583,-0.03904 -31.41667,-0.08675 z m 434.83333,0.01123 c 0.50416,-0.07637 1.32916,-0.07637 1.83333,0 0.50417,0.07637 0.0917,0.138863 -0.91667,0.138863 -1.00833,0 -1.42083,-0.06249 -0.91666,-0.138863 z m 44.83333,-0.01124 c 21.8625,-0.04733 57.6375,-0.04733 79.5,0 21.86249,0.04733 3.975,0.08606 -39.75,0.08606 -43.725,0 -61.6125,-0.03872 -39.75,-0.08606 z M 422.11699,88.118452 c 0.24062,-0.09629 0.52812,-0.08445 0.63889,0.02632 0.11076,0.110763 -0.0861,0.189546 -0.4375,0.175073 -0.38832,-0.016 -0.4673,-0.09498 -0.20139,-0.201389 z m 5.66667,0 c 0.24062,-0.09629 0.52812,-0.08445 0.63888,0.02632 0.11077,0.110763 -0.0861,0.189546 -0.4375,0.175073 -0.38831,-0.016 -0.4673,-0.09498 -0.20138,-0.201389 z m 75.49116,-32.272296 c 0.003,-0.916667 0.0672,-1.252104 0.14386,-0.745417 0.0766,0.506687 0.0746,1.256687 -0.005,1.666667 -0.0791,0.409979 -0.14181,-0.0046 -0.13931,-0.92125 z m 48.90467,-8 c 2.83723,-2.841667 5.23359,-5.166667 5.32526,-5.166667 0.0917,0 -2.1547,2.325 -4.99193,5.166667 -2.83723,2.841666 -5.2336,5.166666 -5.32527,5.166666 -0.0917,0 2.15471,-2.325 4.99194,-5.166666 z m 44.71929,-13.833334 c 0,-0.458333 0.0757,-0.645833 0.16813,-0.416667 0.0925,0.229167 0.0925,0.604167 0,0.833334 -0.0925,0.229166 -0.16813,0.04167 -0.16813,-0.416667 z m -86.05263,-0.459185 c 0,-0.06922 0.2625,-0.331719 0.58334,-0.583333 0.52868,-0.414624 0.54047,-0.402834 0.12585,0.125851 -0.43546,0.55525 -0.70919,0.731827 -0.70919,0.457482 z m 4.16667,-3.874148 c 0.33183,-0.366667 0.67832,-0.666667 0.76999,-0.666667 0.0917,0 -0.10483,0.3 -0.43666,0.666667 -0.33183,0.366666 -0.67832,0.666666 -0.76999,0.666666 -0.0917,0 0.10483,-0.3 0.43666,-0.666666 z m 81.55263,-0.666667 c 0,-0.458333 0.0757,-0.645834 0.16813,-0.416667 0.0925,0.229167 0.0925,0.604167 0,0.833334 -0.0925,0.229166 -0.16813,0.04167 -0.16813,-0.416667 z m -76.05263,-4.5 c 0.43058,-0.458334 0.85788,-0.833334 0.94954,-0.833334 0.0917,0 -0.18563,0.375 -0.61621,0.833334 -0.43058,0.458333 -0.85787,0.833333 -0.94954,0.833333 -0.0917,0 0.18563,-0.375 0.61621,-0.833333 z m 4.66667,-4.292519 c 0,-0.06922 0.2625,-0.331718 0.58333,-0.583333 0.52868,-0.414624 0.54047,-0.402834 0.12585,0.125852 -0.43546,0.555249 -0.70918,0.731826 -0.70918,0.457481 z M 568.78365,4.7851166 c 0.24063,-0.09629 0.52813,-0.084448 0.63889,0.026316 0.11076,0.1107639 -0.0861,0.1895468 -0.4375,0.1750731 -0.38831,-0.015995 -0.4673,-0.09498 -0.20139,-0.2013891 z M 558.44066,4.4333531 c 0.96864,-0.067547 2.46864,-0.066837 3.33333,0.00158 0.86469,0.068415 0.0722,0.1236812 -1.76117,0.1228132 -1.83334,-8.679e-4 -2.54081,-0.056844 -1.57216,-0.1243913 z"
     id="path7" /><path
     style="fill:#fd8b8b"
     d="m 555.45032,241.78512 c 0.24062,-0.0963 0.52812,-0.0845 0.63889,0.0263 0.11076,0.11076 -0.0861,0.18954 -0.4375,0.17507 -0.38832,-0.016 -0.4673,-0.095 -0.20139,-0.20139 z m 6,0 c 0.24062,-0.0963 0.52812,-0.0845 0.63889,0.0263 0.11076,0.11076 -0.0861,0.18954 -0.4375,0.17507 -0.38832,-0.016 -0.4673,-0.095 -0.20139,-0.20139 z m 118.49797,-1.02138 c 2.16451,-0.0582 5.61451,-0.058 7.66666,4.3e-4 2.05216,0.0584 0.2812,0.10596 -3.93547,0.10573 -4.21666,-2.4e-4 -5.8957,-0.048 -3.73119,-0.10616 z m 55.98119,-6.4e-4 c 4.5375,-0.0524 11.9625,-0.0524 16.5,0 4.5375,0.0524 0.825,0.0952 -8.25,0.0952 -9.075,0 -12.7875,-0.0429 -8.25,-0.0952 z M 293.5793,240.43155 c 1.59489,-0.061 4.29489,-0.0613 6,-6.4e-4 1.7051,0.0606 0.40019,0.11051 -2.89981,0.11086 -3.3,3.5e-4 -4.69509,-0.0493 -3.10019,-0.11022 z m 19.36025,0.003 c 0.87636,-0.0689 2.22636,-0.0681 3,0.002 0.77363,0.0699 0.0566,0.12627 -1.59339,0.12525 -1.65,-0.001 -2.28298,-0.0582 -1.40661,-0.1271 z m 92.82327,-0.001 c 1.14584,-0.0651 3.02084,-0.0651 4.16667,0 1.14583,0.0651 0.20833,0.11835 -2.08333,0.11835 -2.29167,0 -3.22917,-0.0533 -2.08334,-0.11835 z m 10.00389,0.011 c 0.41464,-0.0797 1.01464,-0.0767 1.33333,0.007 0.3187,0.0834 -0.0205,0.14866 -0.75388,0.14496 -0.73334,-0.004 -0.99409,-0.072 -0.57945,-0.15169 z m 4.99611,0.015 c 0.22917,-0.0925 0.60417,-0.0925 0.83334,0 0.22916,0.0925 0.0417,0.16813 -0.41667,0.16813 -0.45833,0 -0.64583,-0.0757 -0.41667,-0.16813 z m 238.35416,-0.007 c 0.24063,-0.0963 0.52813,-0.0844 0.63889,0.0263 0.11076,0.11077 -0.0861,0.18955 -0.4375,0.17508 -0.38831,-0.016 -0.4673,-0.095 -0.20139,-0.20139 z m -459.52082,-0.33541 c 0.32083,-0.0838 0.84583,-0.0838 1.16667,0 0.32083,0.0839 0.0583,0.15245 -0.58334,0.15245 -0.64166,0 -0.90416,-0.0686 -0.58333,-0.15245 z m 123.16666,0.009 c 0.22917,-0.0925 0.60417,-0.0925 0.83334,0 0.22916,0.0925 0.0417,0.16813 -0.41667,0.16813 -0.45833,0 -0.64583,-0.0757 -0.41667,-0.16813 z m -127.64583,-0.34028 c 0.24063,-0.0963 0.52813,-0.0845 0.63889,0.0263 0.11077,0.11076 -0.0861,0.18954 -0.4375,0.17507 -0.38831,-0.016 -0.4673,-0.095 -0.20139,-0.20139 z m 389.72916,-8.93896 c 0.43058,-0.45833 0.85788,-0.83333 0.94954,-0.83333 0.0917,0 -0.18562,0.375 -0.61621,0.83333 -0.43058,0.45833 -0.85787,0.83333 -0.94954,0.83333 -0.0917,0 0.18563,-0.375 0.61621,-0.83333 z m -67.04252,-12.75 c -0.41462,-0.52869 -0.40283,-0.54048 0.12586,-0.12585 0.32083,0.25161 0.58333,0.51411 0.58333,0.58333 0,0.27435 -0.27373,0.0978 -0.70919,-0.45748 z m -4,-3.66667 c -0.41462,-0.52868 -0.40283,-0.54047 0.12586,-0.12585 0.32083,0.25162 0.58333,0.51412 0.58333,0.58333 0,0.27435 -0.27373,0.0978 -0.70919,-0.45748 z m -6.14511,-5.83333 -0.97903,-1.08333 1.08333,0.97903 c 1.00982,0.91259 1.23655,1.18763 0.97903,1.18763 -0.0574,0 -0.54487,-0.4875 -1.08333,-1.08333 z m 320.62085,-1.25 c 0,-1.00833 0.0625,-1.42083 0.13886,-0.91667 0.0764,0.50417 0.0764,1.32917 0,1.83334 -0.0764,0.50416 -0.13886,0.0917 -0.13886,-0.91667 z m -231.4069,-2.19445 c 0.016,-0.38831 0.095,-0.4673 0.20139,-0.20138 0.0963,0.24062 0.0844,0.52812 -0.0263,0.63888 -0.11076,0.11077 -0.18955,-0.0861 -0.17507,-0.4375 z m 231.35964,-0.47222 c 0,-0.45833 0.0757,-0.64583 0.16813,-0.41666 0.0925,0.22916 0.0925,0.60416 0,0.83333 -0.0925,0.22917 -0.16813,0.0417 -0.16813,-0.41667 z m -673.35963,-5.19444 c 0.016,-0.38832 0.095,-0.4673 0.20139,-0.20139 0.0963,0.24062 0.0845,0.52812 -0.0263,0.63889 -0.11076,0.11076 -0.18955,-0.0861 -0.17507,-0.4375 z m 399.28178,-3.38889 -0.80811,-0.91667 0.91667,0.80811 c 0.50417,0.44445 0.91667,0.85695 0.91667,0.91666 0,0.26143 -0.26994,0.0487 -1.02523,-0.8081 z m -399.61512,-0.94445 c 0.016,-0.38831 0.095,-0.4673 0.20139,-0.20138 0.0963,0.24062 0.0845,0.52812 -0.0263,0.63888 -0.11077,0.11077 -0.18955,-0.0861 -0.17508,-0.4375 z m 461.7883,-9.47222 c 0,-5.59166 0.0456,-7.87916 0.10137,-5.08333 0.0557,2.79583 0.0557,7.37083 0,10.16667 -0.0557,2.79583 -0.10137,0.50833 -0.10137,-5.08334 z m -125.99023,5.91667 -2.32439,-2.41667 2.41667,2.3244 c 2.2446,2.15889 2.56889,2.50894 2.32439,2.50894 -0.0507,0 -1.13825,-1.0875 -2.41667,-2.41667 z m 165.61223,-1.08333 c 0.002,-1.1 0.0641,-1.50982 0.13829,-0.9107 0.0742,0.59912 0.0727,1.49912 -0.003,2 -0.0761,0.50088 -0.13675,0.0107 -0.13488,-1.0893 z M 194.00523,164.34616 c 0,-15.125 0.0409,-21.3125 0.0908,-13.75 0.05,7.5625 0.05,19.9375 0,27.5 -0.05,7.5625 -0.0908,1.375 -0.0908,-13.75 z m 173.33251,2.83333 c 3e-5,-13.56667 0.0413,-19.06809 0.0917,-12.22539 0.0504,6.8427 0.0503,17.9427 -5e-5,24.66666 -0.0504,6.72397 -0.0916,1.1254 -0.0916,-12.44127 z m 179.48318,21.91667 -0.8081,-0.91667 0.91667,0.80811 c 0.85676,0.75529 1.06952,1.02523 0.8081,1.02523 -0.0597,0 -0.47221,-0.4125 -0.91667,-0.91667 z m -392.55064,-1.08333 c 0,-0.825 0.065,-1.1625 0.14446,-0.75 0.0795,0.4125 0.0795,1.0875 0,1.5 -0.0795,0.4125 -0.14446,0.075 -0.14446,-0.75 z m 385.0549,-6.08334 -0.97903,-1.08333 1.08334,0.97903 c 1.00981,0.91259 1.23655,1.18764 0.97903,1.18764 -0.0574,0 -0.54487,-0.4875 -1.08334,-1.08334 z m -60,-1 -0.97903,-1.08333 1.08334,0.97903 c 1.00982,0.91259 1.23655,1.18764 0.97903,1.18764 -0.0574,0 -0.54487,-0.4875 -1.08334,-1.08334 z m 348.97077,-2.91666 c 0,-1.55834 0.0574,-2.19584 0.1276,-1.41667 0.0702,0.77917 0.0702,2.05417 0,2.83333 -0.0702,0.77917 -0.1276,0.14167 -0.1276,-1.41666 z m -296.47503,-3.25 -0.8081,-0.91667 0.91667,0.8081 c 0.50416,0.44446 0.91666,0.85696 0.91666,0.91667 0,0.26142 -0.26993,0.0487 -1.02523,-0.8081 z m -61.65938,-2.66667 -1.14872,-1.25 1.25,1.14872 c 0.6875,0.6318 1.25,1.1943 1.25,1.25 0,0.25454 -0.28207,0.0147 -1.35128,-1.14872 z m -315.86557,-3.08334 c 0,-1.55833 0.0574,-2.19583 0.12759,-1.41666 0.0702,0.77916 0.0702,2.05416 0,2.83333 -0.0702,0.77917 -0.12759,0.14167 -0.12759,-1.41667 z m 370.19162,-1.25 -0.8081,-0.91666 0.91666,0.8081 c 0.50417,0.44446 0.91667,0.85696 0.91667,0.91667 0,0.26142 -0.26993,0.0487 -1.02523,-0.80811 z m -64.49045,-5.5 -1.31765,-1.41666 1.41666,1.31765 c 1.31749,1.2254 1.56985,1.51568 1.31765,1.51568 -0.0545,0 -0.69196,-0.6375 -1.41666,-1.41667 z m 368.29172,-0.75 c 10e-4,-1.28333 0.0617,-1.76748 0.13388,-1.07589 0.0722,0.69159 0.071,1.74159 -0.003,2.33333 -0.0736,0.59174 -0.13268,0.0259 -0.1312,-1.25744 z m -310.80127,-0.41666 -0.8081,-0.91667 0.91666,0.80811 c 0.50417,0.44445 0.91667,0.85695 0.91667,0.91666 0,0.26143 -0.26993,0.0487 -1.02523,-0.8081 z m 310.78723,-5.58334 c 0.003,-0.91666 0.0672,-1.2521 0.14385,-0.74541 0.0766,0.50669 0.0746,1.25669 -0.005,1.66666 -0.0791,0.40998 -0.14181,-0.005 -0.1393,-0.92125 z m -317.12056,-0.41666 -0.80811,-0.91667 0.91667,0.80811 c 0.50417,0.44445 0.91667,0.85695 0.91667,0.91666 0,0.26143 -0.26994,0.0487 -1.02523,-0.8081 z m -61.49046,-2.83334 -1.31765,-1.41666 1.41667,1.31765 c 0.77917,0.7247 1.41667,1.3622 1.41667,1.41666 0,0.2522 -0.29029,-1.6e-4 -1.51569,-1.31765 z m 55.31735,-3 -0.635,-0.75 0.75,0.635 c 0.70482,0.59674 0.90175,0.865 0.635,0.865 -0.0633,0 -0.40075,-0.3375 -0.75,-0.75 z m -350.69836,-3.75 c 0.002,-1.1 0.0641,-1.50981 0.13828,-0.91069 0.0742,0.59911 0.0727,1.49911 -0.003,2 -0.0761,0.50088 -0.13676,0.0107 -0.13488,-1.08931 z m 641.82918,0.91842 c 1.52121,-0.0619 3.92121,-0.0616 5.33334,7.7e-4 1.41212,0.0623 0.1675,0.11297 -2.76583,0.11255 -2.93333,-4.2e-4 -4.08871,-0.0514 -2.56751,-0.11332 z m -179.82042,-2.41842 c 0,-1.375 0.0588,-1.9375 0.13076,-1.25 0.0719,0.6875 0.0719,1.8125 0,2.5 -0.0719,0.6875 -0.13076,0.125 -0.13076,-1.25 z m 193.97126,2.10356 c 0.32083,-0.0838 0.84583,-0.0838 1.16667,0 0.32083,0.0839 0.0583,0.15244 -0.58334,0.15244 -0.64166,0 -0.90416,-0.0686 -0.58333,-0.15244 z m 9.1875,0.002 c 0.24063,-0.0963 0.52813,-0.0845 0.63889,0.0263 0.11076,0.11076 -0.0861,0.18955 -0.4375,0.17507 -0.38831,-0.016 -0.4673,-0.095 -0.20139,-0.20139 z m -320.62939,-2.68896 -0.8081,-0.91667 0.91667,0.80811 c 0.50416,0.44446 0.91666,0.85696 0.91666,0.91667 0,0.26142 -0.26993,0.0487 -1.02523,-0.80811 z m -59.65938,-1.33333 -1.14872,-1.25 1.25,1.14872 c 1.16347,1.06921 1.40326,1.35128 1.14872,1.35128 -0.0557,0 -0.6182,-0.5625 -1.25,-1.25 z m 216.07057,-2.41667 c 0,-0.45833 0.0757,-0.64583 0.16813,-0.41667 0.0925,0.22917 0.0925,0.60417 0,0.83334 -0.0925,0.22916 -0.16813,0.0417 -0.16813,-0.41667 z m -500.96183,-1 c 0,-0.825 0.065,-1.1625 0.14446,-0.75 0.0795,0.4125 0.0795,1.0875 0,1.5 -0.0795,0.4125 -0.14446,0.075 -0.14446,-0.75 z m 337.88398,-1.58333 -0.80811,-0.91667 0.91667,0.80811 c 0.50417,0.44445 0.91667,0.85695 0.91667,0.91666 0,0.26143 -0.26994,0.0487 -1.02523,-0.8081 z m 124.38487,-3.61111 c 0.016,-0.38832 0.095,-0.4673 0.20139,-0.20139 0.0963,0.24062 0.0845,0.52812 -0.0263,0.63889 -0.11077,0.11076 -0.18955,-0.0861 -0.17508,-0.4375 z m 41.80702,-1.80556 c 0.33183,-0.36667 0.67832,-0.66667 0.76999,-0.66667 0.0917,0 -0.10483,0.3 -0.43666,0.66667 -0.33183,0.36667 -0.67832,0.66667 -0.76999,0.66667 -0.0917,0 0.10483,-0.3 0.43666,-0.66667 z m -462.83332,-0.45918 c 0,-0.0692 0.2625,-0.33172 0.58333,-0.58334 0.52869,-0.41462 0.54048,-0.40283 0.12585,0.12585 -0.43545,0.55525 -0.70918,0.73183 -0.70918,0.45749 z m 289.14569,-1.29082 -0.97903,-1.08333 1.08333,0.97903 c 1.00982,0.91259 1.23655,1.18763 0.97903,1.18763 -0.0574,0 -0.54487,-0.4875 -1.08333,-1.08333 z m 340.2773,-0.81433 c 0.32432,-0.0845 0.77432,-0.079 1,0.0123 0.22568,0.0913 -0.0397,0.16046 -0.58968,0.15366 -0.55,-0.007 -0.73464,-0.0815 -0.41032,-0.16601 z m -349.10761,-7.68567 -1.14872,-1.25 1.25,1.14872 c 1.16347,1.06921 1.40326,1.35128 1.14872,1.35128 -0.0557,0 -0.6182,-0.5625 -1.25,-1.25 z m -89.28907,-0.27778 c 0.016,-0.38831 0.095,-0.4673 0.20139,-0.20139 0.0963,0.24063 0.0845,0.52813 -0.0263,0.63889 -0.11076,0.11077 -0.18955,-0.0861 -0.17507,-0.4375 z m 78.64035,-9.97222 c -0.80968,-0.825 -1.39714,-1.5 -1.30547,-1.5 0.0917,0 0.82912,0.675 1.6388,1.5 0.80968,0.825 1.39714,1.5 1.30547,1.5 -0.0917,0 -0.82913,-0.675 -1.6388,-1.5 z m 162.33333,-4.29252 c 0,-0.0692 0.2625,-0.33172 0.58333,-0.58333 0.52868,-0.41463 0.54048,-0.40283 0.12585,0.12585 -0.43546,0.55525 -0.70918,0.73183 -0.70918,0.45748 z m 2.66666,-2.66666 c 0,-0.0692 0.2625,-0.33172 0.58334,-0.58334 0.52868,-0.41462 0.54047,-0.40283 0.12585,0.12585 -0.43546,0.55525 -0.70919,0.73183 -0.70919,0.45749 z m -275.52096,-1.29082 -0.97903,-1.08333 1.08333,0.97903 c 0.59584,0.53846 1.08334,1.02596 1.08334,1.08333 0,0.25752 -0.27505,0.0308 -1.18764,-0.97903 z m 41.18764,-2.04252 c 0,-0.0692 0.2625,-0.33172 0.58333,-0.58333 0.52868,-0.414625 0.54047,-0.402835 0.12585,0.12585 -0.43546,0.55525 -0.70918,0.73183 -0.70918,0.45748 z m 2.33333,-2.333332 c 0,-0.06922 0.2625,-0.331718 0.58333,-0.583333 0.52869,-0.414624 0.54048,-0.402834 0.12585,0.125852 -0.43545,0.555249 -0.70918,0.731826 -0.70918,0.457481 z M 503.2058,92.818379 c 0.016,-0.388315 0.095,-0.4673 0.20139,-0.201389 0.0963,0.240625 0.0845,0.528125 -0.0263,0.638889 -0.11077,0.110764 -0.18955,-0.08611 -0.17508,-0.4375 z M 327.11699,90.451785 c 0.24063,-0.09629 0.52813,-0.08445 0.63889,0.02632 0.11076,0.110764 -0.0861,0.189547 -0.4375,0.175073 -0.38831,-0.016 -0.4673,-0.09498 -0.20139,-0.201389 z m 332.99999,0 c 0.24063,-0.09629 0.52813,-0.08445 0.63889,0.02632 0.11076,0.110764 -0.0861,0.189547 -0.4375,0.175073 -0.38831,-0.016 -0.4673,-0.09498 -0.20139,-0.201389 z m 7.3125,-0.340873 c 0.4125,-0.07945 1.0875,-0.07945 1.5,0 0.4125,0.07945 0.075,0.144456 -0.75,0.144456 -0.825,0 -1.1625,-0.065 -0.75,-0.144456 z M 423.92949,88.103334 c 0.6875,-0.07192 1.8125,-0.07192 2.5,0 0.6875,0.07191 0.125,0.130754 -1.25,0.130754 -1.375,0 -1.9375,-0.05884 -1.25,-0.130754 z M 522.01282,77.67949 c 2.74541,-2.75 5.06666,-5.000001 5.15833,-5.000001 0.0917,0 -2.07958,2.250001 -4.825,5.000001 -2.74541,2.75 -5.06666,5 -5.15833,5 -0.0917,0 2.07958,-2.25 4.825,-5 z M 503.26355,53.179489 c 0.004,-0.733333 0.072,-0.994084 0.15169,-0.579447 0.0797,0.414638 0.0767,1.014638 -0.007,1.333333 -0.0834,0.318696 -0.14866,-0.02055 -0.14496,-0.753886 z m 93.65993,-17.5 c 0,-0.641667 0.0686,-0.904167 0.15245,-0.583334 0.0838,0.320834 0.0838,0.845834 0,1.166667 -0.0838,0.320833 -0.15245,0.05833 -0.15245,-0.583333 z m -83.41066,-4.459186 c 0,-0.06922 0.2625,-0.331718 0.58333,-0.583333 0.52869,-0.414623 0.54048,-0.402833 0.12585,0.125852 -0.43545,0.555249 -0.70918,0.731826 -0.70918,0.457481 z m 83.02631,-1.068592 c 0.016,-0.388315 0.095,-0.4673 0.20139,-0.201389 0.0963,0.240625 0.0845,0.528125 -0.0263,0.638889 -0.11077,0.110764 -0.18955,-0.08611 -0.17508,-0.4375 z m -77.52631,-4.138889 c 0.33183,-0.366667 0.67832,-0.666667 0.76999,-0.666667 0.0917,0 -0.10483,0.3 -0.43666,0.666667 -0.33183,0.366666 -0.67832,0.666666 -0.76999,0.666666 -0.0917,0 0.10483,-0.3 0.43666,-0.666666 z m 5.16667,-4.792519 c 0,-0.06922 0.2625,-0.331718 0.58333,-0.583333 0.52868,-0.414624 0.54047,-0.402834 0.12585,0.125852 -0.43546,0.555249 -0.70918,0.731826 -0.70918,0.457481 z M 567.78365,4.7851166 c 0.24063,-0.09629 0.52813,-0.084448 0.63889,0.026316 0.11076,0.1107639 -0.0861,0.1895468 -0.4375,0.1750731 -0.38831,-0.015995 -0.4673,-0.09498 -0.20139,-0.2013891 z"
     id="path6" /><path
     style="fill:#fd6363"
     d="m 355.34616,227.34616 c 0.71608,-0.73333 1.37696,-1.33333 1.46863,-1.33333 0.0917,0 -0.41922,0.6 -1.1353,1.33333 -0.71608,0.73333 -1.37696,1.33333 -1.46863,1.33333 -0.0917,0 0.41922,-0.6 1.1353,-1.33333 z m 273.98431,-0.0833 -1.31765,-1.41667 1.41666,1.31765 c 1.31749,1.2254 1.56984,1.51568 1.31765,1.51568 -0.0545,0 -0.69196,-0.6375 -1.41666,-1.41666 z m -462.83559,-0.83334 -1.14872,-1.25 1.25,1.14873 c 0.6875,0.63179 1.25,1.19429 1.25,1.25 0,0.25454 -0.28207,0.0148 -1.35128,-1.14873 z m 346.30875,-13 c -0.41462,-0.52868 -0.40283,-0.54047 0.12586,-0.12585 0.32083,0.25162 0.58333,0.51412 0.58333,0.58333 0,0.27435 -0.27373,0.0978 -0.70919,-0.45748 z m -7.47316,-7.16666 -1.31765,-1.41667 1.41667,1.31765 c 1.31748,1.2254 1.56984,1.51568 1.31765,1.51568 -0.0545,0 -0.69196,-0.6375 -1.41667,-1.41666 z m -309.19349,-7.16667 c -0.41463,-0.52869 -0.40284,-0.54048 0.12585,-0.12585 0.55525,0.43545 0.73182,0.70918 0.45748,0.70918 -0.0692,0 -0.33172,-0.2625 -0.58333,-0.58333 z m 359.68394,-1.33333 -0.8081,-0.91667 0.91666,0.8081 c 0.50417,0.44446 0.91667,0.85696 0.91667,0.91667 0,0.26143 -0.26993,0.0487 -1.02523,-0.8081 z m -7.33333,-7 -0.8081,-0.91667 0.91666,0.8081 c 0.50417,0.44446 0.91667,0.85696 0.91667,0.91667 0,0.26142 -0.26993,0.0487 -1.02523,-0.8081 z m -61.82379,-2.83334 -1.31765,-1.41666 1.41667,1.31764 c 1.31749,1.22541 1.56984,1.51569 1.31765,1.51569 -0.0545,0 -0.69196,-0.6375 -1.41667,-1.41667 z m 54.49046,-4.16666 -0.80811,-0.91667 0.91667,0.8081 c 0.50417,0.44446 0.91667,0.85696 0.91667,0.91667 0,0.26142 -0.26994,0.0487 -1.02523,-0.8081 z m -63.82908,-4.83334 -0.97903,-1.08333 1.08334,0.97903 c 1.00982,0.91259 1.23655,1.18764 0.97903,1.18764 -0.0574,0 -0.54487,-0.4875 -1.08334,-1.08334 z m 56.16241,-2.5 -0.8081,-0.91666 0.91666,0.8081 c 0.50417,0.44446 0.91667,0.85696 0.91667,0.91667 0,0.26142 -0.26993,0.0487 -1.02523,-0.80811 z m -65.65938,-6.66667 -1.14872,-1.25 1.25,1.14873 c 1.16347,1.0692 1.40326,1.35127 1.14872,1.35127 -0.0557,0 -0.6182,-0.5625 -1.25,-1.25 z m 58.32605,-0.33333 -0.80811,-0.91667 0.91667,0.80811 c 0.50417,0.44446 0.91667,0.85696 0.91667,0.91667 0,0.26142 -0.26994,0.0487 -1.02523,-0.80811 z m -7.17311,-6.83333 -0.635,-0.75 0.75,0.63499 c 0.70482,0.59674 0.90175,0.86501 0.635,0.86501 -0.0632,0 -0.40075,-0.3375 -0.75,-0.75 z m -61.48627,-2.83334 -1.14873,-1.25 1.25,1.14873 c 1.16348,1.0692 1.40327,1.35127 1.14873,1.35127 -0.0557,0 -0.61821,-0.5625 -1.25,-1.25 z m 55.15294,-3.16666 -0.635,-0.75 0.75,0.63499 c 0.70481,0.59674 0.90175,0.86501 0.635,0.86501 -0.0633,0 -0.40076,-0.3375 -0.75,-0.75 z m -6.33334,-6 -0.63499,-0.75 0.75,0.63499 c 0.70481,0.59674 0.90174,0.86501 0.63499,0.86501 -0.0632,0 -0.40075,-0.3375 -0.75,-0.75 z m -59.15294,-0.83334 -1.14872,-1.25 1.25,1.14873 c 1.16347,1.0692 1.40326,1.35127 1.14872,1.35127 -0.0557,0 -0.6182,-0.5625 -1.25,-1.25 z m 53.15294,-4.83333 -0.63499,-0.75 0.75,0.635 c 0.70481,0.59674 0.90174,0.865 0.63499,0.865 -0.0632,0 -0.40075,-0.3375 -0.75,-0.75 z m -63.65068,-5.33333 -1.31765,-1.41667 1.41667,1.31765 c 0.77917,0.72471 1.41667,1.36221 1.41667,1.41667 0,0.25219 -0.29029,-1.7e-4 -1.51569,-1.31765 z m 57.15712,-0.83334 -0.8081,-0.91666 0.91667,0.8081 c 0.50416,0.44446 0.91666,0.85696 0.91666,0.91667 0,0.26142 -0.26993,0.0487 -1.02523,-0.80811 z m -7.33333,-7 -0.8081,-0.91666 0.91666,0.8081 c 0.50417,0.44446 0.91667,0.85696 0.91667,0.91667 0,0.26142 -0.26993,0.0487 -1.02523,-0.80811 z m -8.49574,-8.16666 -0.97903,-1.08334 1.08333,0.97903 c 1.00982,0.9126 1.23655,1.18764 0.97903,1.18764 -0.0574,0 -0.54486,-0.4875 -1.08333,-1.08333 z m -9.99471,-9.66667 -1.31765,-1.41667 1.41666,1.31765 c 0.77917,0.72471 1.41667,1.36221 1.41667,1.41667 0,0.25219 -0.29028,-1.6e-4 -1.51568,-1.31765 z m 161.18234,-8.75 c 0.43058,-0.45833 0.85788,-0.83333 0.94955,-0.83333 0.0917,0 -0.18563,0.375 -0.61621,0.83333 -0.43059,0.45833 -0.85788,0.83333 -0.94955,0.83333 -0.0917,0 0.18563,-0.375 0.61621,-0.83333 z m -173.35855,-3.08333 -0.80811,-0.91667 0.91667,0.8081 c 0.50416,0.44446 0.91666,0.85696 0.91666,0.91667 0,0.26143 -0.26993,0.0487 -1.02522,-0.8081 z m -58.47477,-2.750003 c 0.33182,-0.366667 0.67832,-0.666667 0.76999,-0.666667 0.0917,0 -0.10483,0.3 -0.43666,0.666667 -0.33183,0.366666 -0.67833,0.666663 -0.76999,0.666663 -0.0917,0 0.10483,-0.299997 0.43666,-0.666663 z M 532.01282,67.679489 c 2.74541,-2.75 5.06666,-5 5.15833,-5 0.0917,0 -2.07958,2.25 -4.825,5 -2.74541,2.75 -5.06666,5 -5.15833,5 -0.0917,0 2.07958,-2.25 4.825,-5 z M 517.67949,27.346155 c 0.33182,-0.366667 0.67832,-0.666667 0.76999,-0.666667 0.0917,0 -0.10483,0.3 -0.43666,0.666667 -0.33183,0.366667 -0.67833,0.666667 -0.76999,0.666667 -0.0917,0 0.10483,-0.3 0.43666,-0.666667 z m 5.66666,-5.333333 c 0.33183,-0.366667 0.67833,-0.666667 0.76999,-0.666667 0.0917,0 -0.10483,0.3 -0.43665,0.666667 -0.33183,0.366666 -0.67833,0.666666 -0.77,0.666666 -0.0917,0 0.10483,-0.3 0.43666,-0.666666 z"
     id="path5" /><path
     style="fill:#fd4141"
     d="m 557.26282,241.77 c 0.6875,-0.0719 1.8125,-0.0719 2.5,0 0.6875,0.0719 0.125,0.13076 -1.25,0.13076 -1.375,0 -1.9375,-0.0588 -1.25,-0.13076 z m 142.99999,-1.00695 c 5.0875,-0.0518 13.4125,-0.0518 18.5,0 5.0875,0.0517 0.925,0.0941 -9.25,0.0941 -10.175,0 -14.3375,-0.0423 -9.25,-0.0941 z m -395.31946,-0.33106 c 1.24513,-0.0643 3.19513,-0.0638 4.33334,10e-4 1.13821,0.0649 0.11947,0.11751 -2.26387,0.11693 -2.38333,-5.8e-4 -3.31459,-0.0537 -2.06947,-0.11799 z m 107.99072,0.008 c 0.50669,-0.0766 1.25669,-0.0746 1.66667,0.005 0.40998,0.0791 -0.005,0.14181 -0.92125,0.13931 -0.91667,-0.003 -1.25211,-0.0672 -0.74542,-0.14386 z m 5.49931,0.003 c 0.41463,-0.0797 1.01463,-0.0767 1.33333,0.007 0.31869,0.0834 -0.0206,0.14866 -0.75389,0.14496 -0.73333,-0.004 -0.99408,-0.072 -0.57944,-0.15169 z m 241.9961,0.015 c 0.22917,-0.0925 0.60417,-0.0925 0.83334,0 0.22916,0.0925 0.0417,0.16813 -0.41667,0.16813 -0.45833,0 -0.64583,-0.0757 -0.41667,-0.16813 z M 204.09616,240.0978 c 1.69583,-0.0605 4.47083,-0.0605 6.16667,0 1.69583,0.0605 0.30833,0.11 -3.08334,0.11 -3.39166,0 -4.77916,-0.0495 -3.08333,-0.11 z m 44,-6.4e-4 c 2.24583,-0.0577 5.92083,-0.0577 8.16667,0 2.24583,0.0577 0.40833,0.10485 -4.08334,0.10485 -4.49166,0 -6.32916,-0.0472 -4.08333,-0.10485 z m 73.33333,0.0282 c 0.22917,-0.0925 0.60417,-0.0925 0.83333,0 0.22917,0.0925 0.0417,0.16813 -0.41666,0.16813 -0.45834,0 -0.64584,-0.0757 -0.41667,-0.16813 z m 103.41665,-55.21256 0.16666,-55.06668 0.0843,54.81567 c 0.0464,30.14862 -0.0286,54.92863 -0.16666,55.06668 -0.13804,0.13806 -0.176,-24.52899 -0.0843,-54.81567 z m 172.05264,19.09999 c 0,-0.45834 0.0757,-0.64584 0.16813,-0.41667 0.0925,0.22917 0.0925,0.60417 0,0.83333 -0.0925,0.22917 -0.16813,0.0417 -0.16813,-0.41666 z m 69.53667,-2.57491 c 0.59912,-0.0742 1.49912,-0.0727 2,0.003 0.50088,0.0761 0.0107,0.13675 -1.0893,0.13488 -1.1,-0.002 -1.50981,-0.0641 -0.9107,-0.13828 z m -107.4254,-80.25843 c 10e-6,-43.266667 0.0388,-60.917135 0.0861,-39.223261 0.0474,21.693871 0.0473,57.093871 0,78.666671 -0.0473,21.57279 -0.0861,3.82326 -0.0861,-39.44341 z m -404.13757,77.30556 c 0.016,-0.38832 0.095,-0.4673 0.20139,-0.20139 0.0963,0.24062 0.0845,0.52812 -0.0263,0.63889 -0.11076,0.11076 -0.18955,-0.0861 -0.17507,-0.4375 z m -0.30702,-4.47222 c 0,-0.45834 0.0757,-0.64584 0.16813,-0.41667 0.0925,0.22917 0.0925,0.60417 0,0.83333 -0.0925,0.22917 -0.16813,0.0417 -0.16813,-0.41666 z m 39.34568,-1.5 c 0.007,-0.55 0.0815,-0.73465 0.16602,-0.41033 0.0845,0.32433 0.079,0.77433 -0.0123,1 -0.0913,0.22568 -0.16046,-0.0397 -0.15367,-0.58967 z m 461.96132,0.30555 c 0.016,-0.38831 0.095,-0.4673 0.20139,-0.20139 0.0963,0.24063 0.0845,0.52813 -0.0263,0.63889 -0.11077,0.11076 -0.18955,-0.0861 -0.17508,-0.4375 z M 154.322,179.01283 c 0,-4.125 0.0479,-5.8125 0.10633,-3.75 0.0585,2.0625 0.0585,5.4375 0,7.5 -0.0585,2.0625 -0.10633,0.375 -0.10633,-3.75 z m 649.25194,6.08382 c 3.60863,-0.0538 9.60863,-0.0539 13.33334,-1.6e-4 3.72471,0.0537 0.7722,0.0977 -6.56114,0.0978 -7.33333,9e-5 -10.38082,-0.0438 -6.7722,-0.0976 z M 616.33259,161.17949 c 8e-5,-8.06667 0.0436,-11.31897 0.0966,-7.22734 0.0531,4.09163 0.053,10.69163 -1.4e-4,14.66667 -0.0531,3.97503 -0.0966,0.62734 -0.0965,-7.43933 z m 211.92422,-2.83333 c 0,-0.64167 0.0686,-0.90417 0.15244,-0.58334 0.0838,0.32084 0.0838,0.84584 0,1.16667 -0.0838,0.32083 -0.15244,0.0583 -0.15244,-0.58333 z M 668.26282,146.42961 c 7.10416,-0.0502 18.72916,-0.0502 25.83333,0 7.10416,0.0502 1.29166,0.0913 -12.91667,0.0913 -14.20833,0 -20.02083,-0.0411 -12.91666,-0.0913 z m 95.16666,7e-5 c 5.54583,-0.0513 14.62083,-0.0513 20.16667,0 5.54583,0.0513 1.00833,0.0933 -10.08334,0.0933 -11.09166,0 -15.62916,-0.042 -10.08333,-0.0933 z m 41.00388,0.0141 c 0.41464,-0.0797 1.01464,-0.0767 1.33334,0.007 0.31869,0.0834 -0.0206,0.14867 -0.75389,0.14497 -0.73333,-0.004 -0.99408,-0.072 -0.57945,-0.15169 z m 9.32945,-0.34333 c 0.9625,-0.0673 2.5375,-0.0673 3.5,0 0.9625,0.0673 0.175,0.12243 -1.75,0.12243 -1.925,0 -2.7125,-0.0551 -1.75,-0.12243 z M 154.27483,141.8462 c 0.003,-0.91667 0.0672,-1.25211 0.14386,-0.74542 0.0766,0.50669 0.0746,1.25669 -0.005,1.66667 -0.0791,0.40998 -0.14181,-0.005 -0.13931,-0.92125 z m 39.62396,-5.83334 c 0,-0.45833 0.0757,-0.64583 0.16813,-0.41666 0.0925,0.22916 0.0925,0.60416 0,0.83333 -0.0925,0.22917 -0.16813,0.0417 -0.16813,-0.41667 z M 616.5778,134.8462 c 0.007,-0.55 0.0815,-0.73465 0.16601,-0.41033 0.0845,0.32433 0.079,0.77433 -0.0124,1 -0.0913,0.22568 -0.16045,-0.0397 -0.15366,-0.58967 z m -229.93652,-8.83334 c 0,-2.29166 0.0532,-3.22916 0.11834,-2.08333 0.0651,1.14583 0.0651,3.02083 0,4.16667 -0.0651,1.14583 -0.11834,0.20833 -0.11834,-2.08334 z m 280.2882,2.75367 c 1.05417,-0.0661 2.77917,-0.0661 3.83334,0 1.05416,0.0661 0.19166,0.12028 -1.91667,0.12028 -2.10833,0 -2.97083,-0.0541 -1.91667,-0.12028 z m 161.0727,-19.42033 c 0,-10.54167 0.0422,-14.85417 0.0938,-9.583337 0.0516,5.270837 0.0516,13.895837 0,19.166667 -0.0516,5.27083 -0.0938,0.95833 -0.0938,-9.58333 z M 325.76282,90.45873 c 0.22917,-0.09247 0.60417,-0.09247 0.83334,0 0.22916,0.09247 0.0417,0.168128 -0.41667,0.168128 -0.45833,0 -0.64583,-0.07566 -0.41667,-0.168128 z m 335.35416,-0.0069 c 0.24063,-0.09629 0.52813,-0.08445 0.63889,0.02632 0.11076,0.110764 -0.0861,0.189547 -0.4375,0.175073 -0.38831,-0.016 -0.4673,-0.09498 -0.20139,-0.201389 z M 503.63751,67.512823 c 7.5e-4,-2.016667 0.0556,-2.79869 0.122,-1.737829 0.0663,1.06086 0.0657,2.71086 -10e-4,3.666666 -0.0671,0.955806 -0.12138,0.08783 -0.12063,-1.928837 z m -0.34864,-18.000001 c 0.001,-1.283333 0.0617,-1.767487 0.13388,-1.075898 0.0722,0.691589 0.0709,1.741589 -0.003,2.333333 -0.0736,0.591744 -0.13267,0.0259 -0.13119,-1.257435 z m 93.66935,-10.5 c 0,-1.375 0.0588,-1.9375 0.13075,-1.25 0.0719,0.6875 0.0719,1.8125 0,2.5 -0.0719,0.6875 -0.13075,0.125 -0.13075,-1.25 z m -0.41909,-7.861111 c 0.016,-0.388315 0.095,-0.4673 0.20139,-0.201389 0.0963,0.240625 0.0845,0.528125 -0.0263,0.638889 -0.11077,0.110764 -0.18955,-0.08611 -0.17508,-0.4375 z M 566.42948,4.7920611 c 0.22917,-0.092471 0.60417,-0.092471 0.83334,0 0.22916,0.092471 0.0417,0.1681286 -0.41667,0.1681286 -0.45833,0 -0.64583,-0.075658 -0.41667,-0.1681286 z"
     id="path4" /><path
     style="fill:#fd2a2a"
     d="m 516.13697,216.42949 c -0.41463,-0.52868 -0.40284,-0.54047 0.12585,-0.12585 0.32083,0.25162 0.58333,0.51412 0.58333,0.58333 0,0.27435 -0.27373,0.0978 -0.70918,-0.45748 z m -4.82249,-4.5 -0.63499,-0.75 0.75,0.635 c 0.70481,0.59674 0.90174,0.865 0.63499,0.865 -0.0633,0 -0.40075,-0.3375 -0.75,-0.75 z m -9.81129,-9.5 -2.15704,-2.25 2.25,2.15704 c 1.2375,1.18637 2.25,2.19887 2.25,2.25 0,0.24534 -0.33941,-0.0671 -2.34296,-2.15704 z m 48.9844,-9.66666 -0.8081,-0.91667 0.91666,0.8081 c 0.85676,0.7553 1.06953,1.02523 0.80811,1.02523 -0.0597,0 -0.47221,-0.4125 -0.91667,-0.91666 z m -7.49574,-7.16667 -0.97903,-1.08333 1.08333,0.97903 c 1.00982,0.91259 1.23655,1.18763 0.97903,1.18763 -0.0574,0 -0.54486,-0.4875 -1.08333,-1.08333 z m -59,-0.33333 -0.97903,-1.08334 1.08333,0.97903 c 1.00982,0.9126 1.23655,1.18764 0.97903,1.18764 -0.0574,0 -0.54486,-0.4875 -1.08333,-1.08333 z m 51.49574,-6.83334 -0.8081,-0.91666 0.91666,0.8081 c 0.50417,0.44446 0.91667,0.85696 0.91667,0.91667 0,0.26142 -0.26993,0.0487 -1.02523,-0.80811 z m -60.49574,-1.83333 -0.97903,-1.08333 1.08333,0.97903 c 1.00982,0.91259 1.23655,1.18763 0.97903,1.18763 -0.0574,0 -0.54486,-0.4875 -1.08333,-1.08333 z m 53,-5.33334 -0.97903,-1.08333 1.08333,0.97903 c 1.00982,0.9126 1.23655,1.18764 0.97903,1.18764 -0.0574,0 -0.54486,-0.4875 -1.08333,-1.08334 z m -62.83031,-4.16666 -1.14872,-1.25 1.25,1.14872 c 1.16347,1.06921 1.40326,1.35128 1.14872,1.35128 -0.0557,0 -0.6182,-0.5625 -1.25,-1.25 z m 55.65938,-2.66667 -0.8081,-0.91667 0.91667,0.80811 c 0.50416,0.44446 0.91666,0.85696 0.91666,0.91667 0,0.26142 -0.26993,0.0487 -1.02523,-0.80811 z m -6.66666,-6.33333 -0.80811,-0.91667 0.91667,0.80811 c 0.50417,0.44445 0.91667,0.85695 0.91667,0.91666 0,0.26143 -0.26994,0.0487 -1.02523,-0.8081 z m -59.15712,-0.83334 -1.31765,-1.41666 1.41666,1.31765 c 0.77917,0.7247 1.41667,1.3622 1.41667,1.41666 0,0.2522 -0.29028,-1.6e-4 -1.51568,-1.31765 z m 52.98401,-5 -0.635,-0.75 0.75,0.635 c 0.70482,0.59674 0.90175,0.865 0.635,0.865 -0.0633,0 -0.40075,-0.3375 -0.75,-0.75 z m -63.65068,-5.33333 -1.31765,-1.41667 1.41667,1.31765 c 0.77916,0.72471 1.41666,1.36221 1.41666,1.41667 0,0.25219 -0.29028,-1.6e-4 -1.51568,-1.31765 z m 57.49045,-0.5 -0.8081,-0.91667 0.91667,0.80811 c 0.50416,0.44446 0.91666,0.85696 0.91666,0.91667 0,0.26142 -0.26993,0.0487 -1.02523,-0.80811 z m -6.33333,-6 -0.8081,-0.91667 0.91666,0.80811 c 0.50417,0.44446 0.91667,0.85696 0.91667,0.91667 0,0.26142 -0.26993,0.0487 -1.02523,-0.80811 z m -61.64144,-3.58333 c -0.80967,-0.825 -1.39713,-1.5 -1.30547,-1.5 0.0917,0 0.82913,0.675 1.63881,1.5 0.80967,0.825 1.39714,1.5 1.30547,1.5 -0.0917,0 -0.82913,-0.675 -1.63881,-1.5 z m 54.64144,-3.08334 -0.8081,-0.91666 0.91666,0.8081 c 0.50417,0.44446 0.91667,0.85696 0.91667,0.91667 0,0.26142 -0.26993,0.0487 -1.02523,-0.80811 z m -8.32605,-8 -1.14872,-1.25 1.25,1.14873 c 1.16347,1.0692 1.40326,1.35127 1.14872,1.35127 -0.0557,0 -0.6182,-0.5625 -1.25,-1.25 z m -9.49774,-9.16666 -1.31765,-1.41667 1.41667,1.31765 c 0.77917,0.72471 1.41667,1.36221 1.41667,1.41667 0,0.25219 -0.29029,-1.7e-4 -1.51569,-1.31765 z m -11.99684,-11.66667 -1.65414,-1.75 1.75,1.65414 c 0.9625,0.90977 1.75,1.69727 1.75,1.75 0,0.24873 -0.30881,-0.028 -1.84586,-1.65414 z m 45.21317,-9.666667 c 0.0798,-0.04583 0.8923,-0.758333 1.80556,-1.583333 l 1.66046,-1.5 -1.48607,1.583333 c -0.81733,0.870834 -1.62983,1.583334 -1.80555,1.583334 -0.17572,0 -0.2542,-0.0375 -0.1744,-0.08333 z m 38.13269,-37.583334 c 2.74541,-2.75 5.06666,-5 5.15833,-5 0.0917,0 -2.07958,2.25 -4.825,5 -2.74541,2.75 -5.06666,5 -5.15833,5 -0.0917,0 2.07958,-2.25 4.825,-5 z m -33.5,-21.833334 c 0.43058,-0.458333 0.85788,-0.833333 0.94954,-0.833333 0.0917,0 -0.18563,0.375 -0.61621,0.833333 -0.43058,0.458334 -0.85787,0.833334 -0.94954,0.833334 -0.0917,0 0.18563,-0.375 0.61621,-0.833334 z m 7.83333,-7.166666 c 0.33183,-0.366667 0.67833,-0.666667 0.76999,-0.666667 0.0917,0 -0.10483,0.3 -0.43665,0.666667 -0.33183,0.366666 -0.67833,0.666666 -0.77,0.666666 -0.0917,0 0.10483,-0.3 0.43666,-0.666666 z m 5.66667,-5.333334 c 0.33183,-0.366667 0.67832,-0.666667 0.76999,-0.666667 0.0917,0 -0.10483,0.3 -0.43666,0.666667 -0.33183,0.366667 -0.67832,0.666667 -0.76999,0.666667 -0.0917,0 0.10483,-0.3 0.43666,-0.666667 z m 4.16667,-3.792518 c 0,-0.06922 0.2625,-0.331719 0.58333,-0.583334 0.52868,-0.414623 0.54047,-0.402833 0.12585,0.125852 -0.43546,0.555249 -0.70918,0.731826 -0.70918,0.457482 z m 63.3081,-6.124149 -0.80811,-0.916667 0.91667,0.808105 c 0.50417,0.444458 0.91667,0.856958 0.91667,0.916667 0,0.261425 -0.26994,0.04866 -1.02523,-0.808105 z"
     id="path3" /><path
     style="fill:#fd0101"
     d="m 552.34615,241.21077 c -6.83886,-1.56261 -13.75655,-5.8183 -25.8786,-15.92026 -7.12953,-5.94142 -13.27927,-11.63938 -26.38249,-24.44435 -6.75373,-6.6 -15.77593,-15.375 -20.04933,-19.5 -4.27341,-4.125 -17.99391,-17.4 -30.49,-29.5 -18.37042,-17.78814 -22.90964,-22.02 -23.70987,-22.10446 l -0.9897,-0.10445 v 55.00145 c 0,43.63511 -0.0861,55.05718 -0.41667,55.27112 -0.64537,0.41769 -34.33295,0.52946 -35.85741,0.11896 -0.85804,-0.23104 -1.41255,-0.62796 -1.67161,-1.19653 -0.46348,-1.01722 -0.51914,-101.78241 -0.0627,-113.48609 0.22375,-5.73711 0.42229,-7.66088 0.99532,-9.64425 2.12515,-7.35554 7.36206,-14.88827 13.63876,-19.617906 3.61136,-2.721244 6.43537,-4.222466 10.42619,-5.54249 14.14071,-4.67725 27.42381,-1.982448 39.9481,8.104455 1.19167,0.959752 8.23823,7.622421 15.65902,14.805931 19.17151,18.55849 20.73524,20.05647 38.34098,36.72885 15.63581,14.80688 42.97191,40.84901 48.87177,46.5584 1.89215,1.83106 3.30688,2.94034 3.75,2.94034 h 0.71156 v -78.45918 c 0,-70.751986 -0.0512,-78.501681 -0.52118,-78.891733 -0.60007,-0.498015 1.04385,-2.079388 -32.68587,31.442329 -11.75555,11.683055 -21.54019,21.241917 -21.74365,21.241917 -0.20346,0 -0.44861,-0.3375 -0.54478,-0.75 -0.0962,-0.4125 -0.1339,-11.85 -0.0838,-25.416667 0.0905,-24.53194 0.095,-24.676517 0.82344,-26.47008 1.25974,-3.101792 2.88617,-5.133455 7.64565,-9.550608 2.53563,-2.353252 7.46024,-6.934588 10.94357,-10.180748 10.26142,-9.562737 13.52921,-12.139122 18.33333,-14.4542998 2.8182,-1.3581335 5.85072,-2.3664202 8.80395,-2.9272365 2.8344,-0.5382509 17.55588,-0.5180252 21.19605,0.029121 8.30335,1.2480568 13.34028,3.5734536 18.20012,8.4024293 4.54624,4.517379 6.25867,8.558511 7.05603,16.651421 0.62272,6.320506 0.59262,173.680245 -0.032,177.635105 -1.68661,10.6797 -7.33492,19.96391 -16.22419,26.66792 -2.94261,2.21923 -8.85722,5.11638 -12.33333,6.04123 -3.45557,0.91939 -12.59216,1.22286 -15.66667,0.52036 z m 106.60427,-0.87669 c -10.92094,-0.90005 -21.01976,-5.23706 -28.43272,-12.21064 -6.55781,-6.16912 -10.84704,-14.10867 -13.08885,-24.22803 l -0.74937,-3.38258 v -33.66667 c 0,-26.00171 0.0989,-34.31174 0.43457,-36.5 1.74312,-11.36511 6.5484,-20.21751 14.88858,-27.42812 6.99482,-6.047456 15.20576,-10.050242 24.17685,-11.786073 3.01407,-0.583196 7.22658,-0.617198 87.41667,-0.705581 l 84.24999,-0.09286 v 19.137324 c 0,17.67595 -0.0431,19.15386 -0.56455,19.35395 -0.3105,0.11915 -37.28061,0.19652 -82.1558,0.17194 -74.90783,-0.041 -81.7265,2.1e-4 -83.24229,0.50368 -2.35867,0.78342 -4.40453,2.71757 -5.54584,5.243 -0.87355,1.93295 -0.96193,2.4969 -1.09448,6.9841 l -0.14419,4.88136 83.79024,-0.0353 c 91.14611,-0.0384 87.91988,-0.10137 88.72115,1.73158 0.26653,0.6097 0.41754,6.24297 0.49894,18.61214 l 0.11672,17.7378 -0.77328,0.18357 c -1.24053,0.2945 -36.08903,0.45385 -105.31968,0.48161 -74.44871,0.0299 -65.93674,-0.46368 -66.21287,3.83904 -0.41119,6.40731 1.60051,10.38835 5.97156,11.81733 0.92084,0.30104 20.86102,0.41313 82.94549,0.46625 l 81.73321,0.0699 0.81279,0.94488 0.81278,0.94488 -0.0916,18.12197 c -0.0724,14.32803 -0.18234,18.21265 -0.52494,18.55512 -0.35292,0.35278 -15.75365,0.43998 -83,0.46996 -45.41167,0.0202 -83.94475,-0.0768 -85.62907,-0.21556 z m -454.93759,-0.35483 c -10.20078,-0.22913 -13.29896,-0.61893 -18.83334,-2.36952 -6.52111,-2.06271 -12.36679,-5.48539 -17.3086,-10.13429 -5.36161,-5.04382 -9.49425,-11.90599 -11.1856,-18.57348 -1.90136,-7.49539 -2.00579,-9.81525 -2.00579,-44.5558 0,-34.81972 -0.054,-33.7195 2.0034,-40.81472 4.7494,-16.37883 17.57435,-28.214354 34.99659,-32.296646 2.98758,-0.700033 3.26577,-0.703414 67.16667,-0.816244 45.62552,-0.08056 65.35969,-0.0052 68.29545,0.260946 10.86294,0.984652 20.23048,5.199015 27.36191,12.309854 6.29193,6.27376 9.74883,12.54109 11.73503,21.27551 0.73324,3.22447 0.73948,3.50713 0.86243,39.0813 0.083,24.01371 0.006,36.988 -0.23405,39.33393 -1.82213,17.82173 -13.99799,31.46751 -31.83258,35.67553 -7.80589,1.84178 -5.71399,1.78444 -66.02152,1.80984 -30.61667,0.0129 -59.86667,-0.0709 -65,-0.18621 z m 118.62799,-39.04304 c 1.76205,-0.52648 4.04424,-2.78902 4.51182,-4.47296 0.54151,-1.95018 0.49593,-61.08666 -0.0485,-62.90375 -0.61227,-2.04358 -2.48373,-3.73679 -4.64387,-4.20157 -1.31501,-0.28294 -17.77982,-0.35638 -62.94746,-0.2808 -57.02278,0.0954 -61.23737,0.14107 -62.2103,0.67372 -1.46476,0.80192 -2.71689,2.39691 -3.02644,3.85512 -0.14479,0.6821 -0.26326,14.66519 -0.26326,31.07352 0,24.30744 0.0848,30.12512 0.45774,31.40865 0.65515,2.25468 2.16802,3.84724 4.37559,4.60607 1.77107,0.60878 3.88098,0.63055 62.12799,0.64107 46.76877,0.008 60.60244,-0.0811 61.66667,-0.39907 z"
     id="path1" /></g><g
   inkscape:groupmode="layer"
   id="layer2"
   inkscape:label="one"
   transform="translate(-64.307693,-3.4615383)" /><g
   id="g8"
   transform="translate(-64.307693,-3.4615383)"><path
     style="fill:#d5d5d5"
     d="m 802.9109,360.69697 c 0,-0.12665 1.07627,-1.20292 2.39171,-2.39171 l 2.3917,-2.16143 -2.16143,2.3917 c -2.01476,2.22941 -2.62198,2.72997 -2.62198,2.16144 z m -17.66181,-20.00722 c 0.95061,-1.01188 1.89396,-1.83977 2.09633,-1.83977 0.20238,0 -0.40981,0.82789 -1.36042,1.83977 -0.9506,1.01187 -1.89395,1.83977 -2.09633,1.83977 -0.20237,0 0.40982,-0.8279 1.36042,-1.83977 z m -35.69157,-37.8993 c 0.73259,-0.8095 1.49756,-1.47181 1.69993,-1.47181 0.20238,0 -0.23143,0.66231 -0.96402,1.47181 -0.73259,0.8095 -1.49756,1.47182 -1.69993,1.47182 -0.20238,0 0.23143,-0.66232 0.96402,-1.47182 z m -302.52841,-22.26123 -1.40189,-1.6558 1.65579,1.4019 c 0.91069,0.77104 1.65579,1.51615 1.65579,1.65579 0,0.58892 -0.59225,0.15414 -1.90969,-1.40189 z m 54.80125,-58.50474 c -0.91537,-1.16719 -0.88934,-1.19322 0.27785,-0.27785 1.22584,0.96137 1.61567,1.56569 1.00999,1.56569 -0.15281,0 -0.73234,-0.57953 -1.28784,-1.28784 z m -25.31801,-24.65294 -4.39242,-4.59943 4.59943,4.39241 c 4.27248,4.08018 4.93618,4.80645 4.39242,4.80645 -0.11386,0 -2.18361,-2.06975 -4.59943,-4.59943 z m 55.9058,-3.67955 -2.16143,-2.3917 2.3917,2.16143 c 1.31544,1.18879 2.39171,2.26506 2.39171,2.3917 0,0.56854 -0.60722,0.068 -2.62198,-2.16143 z m -16.56735,-15.82203 -1.78407,-2.02375 2.02375,1.78407 c 1.89149,1.66749 2.36122,2.26343 1.78407,2.26343 -0.13182,0 -1.04251,-0.91069 -2.02375,-2.02375 z m -61.42731,-1.83977 -2.909,-3.12762 3.12761,2.90901 c 2.90865,2.70535 3.46578,3.34622 2.90901,3.34622 -0.12024,0 -1.52766,-1.40743 -3.12762,-3.12761 z m 46.32696,-12.51045 -1.4019,-1.6558 1.6558,1.4019 c 0.91068,0.77104 1.65579,1.51615 1.65579,1.6558 0,0.58891 -0.59225,0.15414 -1.90969,-1.4019 z m -69.14013,-9.56681 -2.90901,-3.12762 3.12762,2.90901 c 2.90864,2.70535 3.46578,3.34622 2.90901,3.34622 -0.12024,0 -1.52766,-1.40743 -3.12762,-3.12761 z m 55.54004,-3.31159 -1.78407,-2.02375 2.02375,1.78407 c 1.11306,0.98124 2.02374,1.89193 2.02374,2.02375 0,0.57716 -0.59593,0.10743 -2.26342,-1.78407 z m -15.81263,-15.08613 -2.16144,-2.3917 2.39171,2.16143 c 1.31544,1.18878 2.3917,2.26505 2.3917,2.3917 0,0.56853 -0.60722,0.068 -2.62197,-2.16143 z M 448.9388,114.02988 c -1.78754,-1.82137 -3.08449,-3.31159 -2.88212,-3.31159 0.20237,0 1.83049,1.49022 3.61803,3.31159 1.78755,1.82138 3.0845,3.31159 2.88213,3.31159 -0.20238,0 -1.83049,-1.49021 -3.61804,-3.31159 z m -106.3851,-4.23147 -2.16143,-2.39171 2.3917,2.16143 c 1.31544,1.18879 2.3917,2.26506 2.3917,2.39171 0,0.56853 -0.60722,0.068 -2.62197,-2.16143 z m 149.80372,-7.37751 c 0,-0.11132 2.56648,-2.677797 5.70329,-5.70329 l 5.7033,-5.500897 -5.5009,5.703292 c -5.10911,5.297095 -5.90569,6.039065 -5.90569,5.500895 z m 3.67954,-59.774159 c 0.95061,-1.011874 1.89396,-1.839772 2.09633,-1.839772 0.20238,0 -0.40981,0.827898 -1.36042,1.839772 -0.9506,1.011875 -1.89395,1.839772 -2.09633,1.839772 -0.20237,0 0.40982,-0.827897 1.36042,-1.839772 z m 10.67068,-9.934767 c 0.73259,-0.809499 1.49756,-1.471817 1.69993,-1.471817 0.20238,0 -0.23143,0.662318 -0.96402,1.471817 -0.73259,0.8095 -1.49756,1.471817 -1.69993,1.471817 -0.20238,0 0.23143,-0.662317 0.96402,-1.471817 z m 70.92132,-12.32647 c -0.91537,-1.167192 -0.88934,-1.193221 0.27785,-0.277846 0.70831,0.555497 1.28784,1.135025 1.28784,1.28784 0,0.605678 -0.60432,0.215844 -1.56569,-1.009994 z"
     id="path14" /><path
     style="fill:#c0bfbf"
     d="m 765.94467,373.64026 c 1.32269,-0.16379 3.30964,-0.16041 4.41545,0.008 1.10582,0.16791 0.0236,0.30192 -2.40488,0.29779 -2.4285,-0.004 -3.33326,-0.14152 -2.01057,-0.3053 z m -150.49251,-2.92028 c 0.71602,-0.18658 1.70949,-0.17431 2.20773,0.0273 0.49823,0.20158 -0.0876,0.35424 -1.30185,0.33924 -1.21425,-0.015 -1.62189,-0.17992 -0.90588,-0.36651 z m 87.72169,-48.7959 c 0,-25.70161 0.0923,-36.21591 0.20502,-23.3651 0.11277,12.8508 0.11277,33.87939 0,46.7302 -0.11276,12.8508 -0.20502,2.33651 -0.20502,-23.3651 z m -206.57637,34.06723 c 0.9154,-0.17603 2.24004,-0.16935 2.94363,0.0149 0.70359,0.18419 -0.0454,0.32821 -1.66437,0.32004 -1.619,-0.008 -2.19467,-0.15887 -1.27926,-0.33489 z m 19.86953,0 c 0.91541,-0.17603 2.24004,-0.16935 2.94364,0.0149 0.70359,0.18419 -0.0454,0.32821 -1.66438,0.32004 -1.619,-0.008 -2.19467,-0.15887 -1.27926,-0.33489 z m 86.82865,-58.87157 c 0.91069,-0.17541 2.4009,-0.17541 3.31159,0 0.91069,0.1754 0.16558,0.31892 -1.65579,0.31892 -1.82138,0 -2.56649,-0.14352 -1.6558,-0.31892 z m -196.11968,-2.2322 c 2.32732,-0.14604 6.13564,-0.14604 8.46295,0 2.32732,0.14604 0.42315,0.26553 -4.23147,0.26553 -4.65462,0 -6.55879,-0.11949 -4.23148,-0.26553 z m 189.4965,-24.28602 c 2.52969,-0.14371 6.66918,-0.14371 9.19886,0 2.52969,0.1437 0.45994,0.26127 -4.59943,0.26127 -5.05937,0 -7.12911,-0.11757 -4.59943,-0.26127 z M 654.1022,247.7876 c 2.54555,-0.14411 6.51946,-0.14292 8.83091,0.003 2.31145,0.14557 0.22873,0.26348 -4.62827,0.26203 -4.857,-0.001 -6.74819,-0.12056 -4.20264,-0.26467 z m 103.05,-0.006 c 10.65306,-0.11498 27.87333,-0.11488 38.26725,2.2e-4 10.39392,0.11511 1.67777,0.20918 -19.36921,0.20906 -21.04699,-1.3e-4 -29.55111,-0.0943 -18.89804,-0.20928 z m -572.54261,-0.68713 c 0.53123,-0.21258 1.16595,-0.18643 1.41049,0.0581 0.24454,0.24454 -0.19011,0.41847 -0.96588,0.38652 -0.85729,-0.0353 -1.03167,-0.20969 -0.44461,-0.44462 z m 128.04812,0 c 0.53123,-0.21258 1.16595,-0.18643 1.41049,0.0581 0.24453,0.24454 -0.19011,0.41847 -0.96588,0.38652 -0.85729,-0.0353 -1.03167,-0.20969 -0.44461,-0.44462 z M 413.22888,192.0362 c -6e-5,-30.35623 0.0908,-42.88197 0.202,-27.83496 0.11116,15.047 0.11121,39.88392 1.1e-4,55.19315 -0.1111,15.30923 -0.20205,2.99804 -0.20211,-27.35819 z m -39.00363,-9.56681 c 6e-5,-29.54674 0.0912,-41.52684 0.20257,-26.62246 0.11135,14.90438 0.11129,39.07898 -1.2e-4,53.72133 -0.11142,14.64235 -0.20252,2.44786 -0.20245,-27.09887 z m 282.05584,25.58221 c 2.12494,-0.14865 5.6021,-0.14865 7.72704,0 2.12494,0.14866 0.38635,0.27028 -3.86352,0.27028 -4.24987,0 -5.98846,-0.12162 -3.86352,-0.27028 z m -514.10003,-6.08063 c 0,-1.01188 0.16703,-1.42583 0.37118,-0.91989 0.20415,0.50594 0.20415,1.33384 0,1.83977 -0.20415,0.50594 -0.37118,0.092 -0.37118,-0.91988 z m 39.95591,-30.54021 c 2.3e-4,-14.97574 0.0984,-20.99774 0.21806,-13.3822 0.1197,7.61553 0.11952,19.8684 -4.1e-4,27.22862 -0.11994,7.36021 -0.21788,1.12932 -0.21765,-13.84642 z m 421.6507,-3.31159 c 0,-7.89262 0.10827,-11.12142 0.24059,-7.17511 0.13232,3.94631 0.13232,10.40391 0,14.35022 -0.13232,3.94631 -0.24059,0.71751 -0.24059,-7.17511 z m 212.48579,-2.94364 c 0,-1.01187 0.16703,-1.42582 0.37118,-0.91988 0.20415,0.50593 0.20415,1.33383 0,1.83977 -0.20415,0.50594 -0.37118,0.092 -0.37118,-0.91989 z m -19.78775,-12.28451 c 0.71601,-0.18659 1.70949,-0.17432 2.20772,0.0273 0.49824,0.20158 -0.0876,0.35424 -1.30184,0.33924 -1.21425,-0.015 -1.6219,-0.17993 -0.90588,-0.36651 z M 216.99896,96.920163 c 17.94063,-0.109738 47.08262,-0.1097 64.75996,8.5e-5 17.67735,0.109785 2.99865,0.199571 -32.61934,0.199525 -35.61798,-4.7e-5 -50.08126,-0.08987 -32.14062,-0.19961 z m 474.29443,-6.1e-5 c 23.00071,-0.107953 60.42167,-0.107929 83.15769,5.3e-5 22.73603,0.107981 3.91727,0.196306 -41.81946,0.196277 -45.73673,-2.9e-5 -64.33893,-0.08838 -41.33823,-0.19633 z m -278.5521,-2.158601 c 0.53124,-0.212582 1.16596,-0.186438 1.4105,0.0581 0.24453,0.244536 -0.19011,0.418467 -0.96588,0.386513 -0.8573,-0.03531 -1.03167,-0.20969 -0.44462,-0.444611 z m 78.43676,-18.630916 c 0,-5.868871 0.11429,-8.269773 0.25397,-5.335338 0.13968,2.934436 0.13968,7.73624 0,10.670676 -0.13968,2.934436 -0.25397,0.533534 -0.25397,-5.335338 z M 556.2435,11.603822 c 0.53123,-0.212582 1.16595,-0.186438 1.41049,0.0581 0.24453,0.244536 -0.19011,0.418468 -0.96588,0.386514 -0.85729,-0.03531 -1.03167,-0.20969 -0.44461,-0.444612 z"
     id="path13" /><path
     style="fill:#9e9e9e"
     d="m 730.3776,358.53553 -2.16143,-2.3917 2.3917,2.16143 c 2.2294,2.01476 2.72997,2.62198 2.16143,2.62198 -0.12665,0 -1.20291,-1.07627 -2.3917,-2.39171 z m -81.27162,-2.3917 c 0.95061,-1.01187 1.89395,-1.83977 2.09633,-1.83977 0.20237,0 -0.40982,0.8279 -1.36042,1.83977 -0.95061,1.01188 -1.89396,1.83977 -2.09633,1.83977 -0.20238,0 0.40981,-0.82789 1.36042,-1.83977 z m -1.17378,-71.19916 -1.4019,-1.6558 1.65579,1.4019 c 0.91069,0.77104 1.6558,1.51615 1.6558,1.6558 0,0.58891 -0.59226,0.15414 -1.90969,-1.4019 z m 157.82847,0.36795 c -0.91538,-1.16719 -0.88935,-1.19322 0.27785,-0.27784 1.22583,0.96137 1.61567,1.56568 1.00999,1.56568 -0.15282,0 -0.73234,-0.57953 -1.28784,-1.28784 z m -651.24106,-51.5136 -1.78407,-2.02375 2.02375,1.78407 c 1.8915,1.66749 2.36123,2.26343 1.78407,2.26343 -0.13182,0 -1.0425,-0.91069 -2.02375,-2.02375 z m 188.81629,0.55193 c 0.73259,-0.8095 1.49756,-1.47182 1.69993,-1.47182 0.20238,0 -0.23143,0.66232 -0.96402,1.47182 -0.73259,0.8095 -1.49756,1.47182 -1.69993,1.47182 -0.20238,0 0.23143,-0.66232 0.96402,-1.47182 z m 155.20682,-15.63806 -1.40189,-1.6558 1.65579,1.4019 c 1.55604,1.31744 1.99081,1.90969 1.4019,1.90969 -0.13965,0 -0.88475,-0.7451 -1.6558,-1.65579 z m 37.91353,-20.9734 -1.78408,-2.02375 2.02375,1.78408 c 1.11306,0.98124 2.02375,1.89192 2.02375,2.02375 0,0.57715 -0.59594,0.10742 -2.26342,-1.78408 z m -66.59034,-6.99113 -2.16143,-2.3917 2.3917,2.16143 c 1.31544,1.18878 2.3917,2.26505 2.3917,2.3917 0,0.56853 -0.60721,0.068 -2.62197,-2.16143 z m 50.40034,-8.46295 -1.78407,-2.02375 2.02375,1.78407 c 1.11306,0.98125 2.02375,1.89193 2.02375,2.02375 0,0.57716 -0.59594,0.10743 -2.26343,-1.78407 z m -71.36706,-11.77454 -2.53607,-2.75966 2.75966,2.53607 c 1.51781,1.39483 2.75966,2.63668 2.75966,2.75966 0,0.56195 -0.62274,0.0326 -2.98325,-2.53607 z m 55.5308,-3.31159 -1.40189,-1.65579 1.65579,1.40189 c 0.91069,0.77105 1.6558,1.51616 1.6558,1.6558 0,0.58891 -0.59226,0.15414 -1.9097,-1.4019 z m -13.98226,-13.24635 -1.4019,-1.6558 1.6558,1.4019 c 0.91068,0.77104 1.65579,1.51615 1.65579,1.65579 0,0.58892 -0.59226,0.15414 -1.90969,-1.40189 z m -64.72468,-5.88727 -2.90901,-3.12761 3.12762,2.909 c 2.90865,2.70535 3.46578,3.34622 2.90901,3.34622 -0.12024,0 -1.52766,-1.40743 -3.12762,-3.12761 z m 50.03013,-8.095 -2.16143,-2.3917 2.3917,2.16143 c 1.31544,1.18879 2.3917,2.26505 2.3917,2.3917 0,0.56854 -0.60722,0.068 -2.62197,-2.16143 z m -20.23081,-19.50158 -2.53607,-2.75966 2.75966,2.53607 c 1.51781,1.39483 2.75966,2.63668 2.75966,2.75966 0,0.56195 -0.62274,0.0326 -2.98325,-2.53607 z m -300.5791,-9.01488 c 0.73258,-0.8095 1.49755,-1.47182 1.69993,-1.47182 0.20237,0 -0.23144,0.66232 -0.96402,1.47182 -0.73259,0.8095 -1.49756,1.47182 -1.69994,1.47182 -0.20237,0 0.23144,-0.66232 0.96403,-1.47182 z M 514.06673,80.546037 c 6.06112,-6.071246 11.1858,-11.03863 11.38818,-11.03863 0.20237,0 -4.59115,4.967384 -10.65227,11.03863 -6.06113,6.071247 -11.18581,11.03863 -11.38819,11.03863 -0.20237,0 4.59115,-4.967383 10.65228,-11.03863 z M 502.66014,36.84958 c 0,-0.152815 0.57953,-0.732344 1.28784,-1.28784 1.16719,-0.915375 1.19322,-0.889346 0.27785,0.277846 -0.96137,1.225838 -1.56569,1.615672 -1.56569,1.009994 z m 11.03863,-10.302721 c 0,-0.152816 0.57953,-0.732344 1.28784,-1.28784 1.1672,-0.915376 1.19322,-0.889346 0.27785,0.277846 -0.96137,1.225838 -1.56569,1.615672 -1.56569,1.009994 z"
     id="path12" /><path
     style="fill:#807f7f"
     d="m 545.54083,370.71998 c 0.71602,-0.18658 1.70949,-0.17431 2.20773,0.0273 0.49823,0.20158 -0.0876,0.35424 -1.30185,0.33924 -1.21425,-0.015 -1.62189,-0.17992 -0.90588,-0.36651 z m 38.66573,-0.0405 c 5.79217,-0.12448 15.06462,-0.12418 20.60544,6.8e-4 5.54082,0.12486 0.80177,0.22671 -10.53122,0.22634 -11.333,-3.7e-4 -15.8664,-0.10253 -10.07422,-0.22702 z m 92.48823,-49.85921 0.008,-49.30588 12.6951,-0.0269 12.6951,-0.0269 -12.50595,0.22819 -12.50595,0.22819 -0.19692,49.10455 -0.19692,49.10455 z m -302.47125,0.36795 c 0,-26.91586 0.0919,-37.92689 0.20416,-24.46896 0.11229,13.45793 0.11229,35.47999 0,48.93792 -0.11229,13.45793 -0.20416,2.4469 -0.20416,-24.46896 z m 368.48631,4.0475 c 0.015,-1.21425 0.17993,-1.6219 0.36652,-0.90588 0.18658,0.71601 0.17431,1.70949 -0.0273,2.20772 -0.20158,0.49824 -0.35425,-0.0876 -0.33925,-1.30184 z m 0.0273,-5.51932 c 0,-1.41662 0.15145,-1.99615 0.33655,-1.28784 0.1851,0.70831 0.1851,1.86737 0,2.57568 -0.1851,0.70831 -0.33655,0.12879 -0.33655,-1.28784 z M 400.65919,307.57386 c 10e-4,-5.6665 0.11666,-7.88733 0.25671,-4.93519 0.14004,2.95215 0.1391,7.58837 -0.002,10.30272 -0.14119,2.71436 -0.25577,0.29897 -0.25462,-5.36753 z m 19.44119,-12.6452 c 0.53124,-0.21259 1.16596,-0.18644 1.41049,0.0581 0.24454,0.24453 -0.19011,0.41846 -0.96588,0.38651 -0.85729,-0.0353 -1.03167,-0.20969 -0.44461,-0.44461 z m 196.48763,-23.54908 c 0.53124,-0.21258 1.16596,-0.18644 1.41049,0.0581 0.24454,0.24453 -0.19011,0.41847 -0.96588,0.38651 -0.85729,-0.0353 -1.03167,-0.20969 -0.44461,-0.44461 z m 144.97402,-2.20773 c 0.53124,-0.21258 1.16596,-0.18643 1.41049,0.0581 0.24454,0.24454 -0.19011,0.41847 -0.96588,0.38652 -0.85729,-0.0353 -1.03167,-0.20969 -0.44461,-0.44462 z m -77.36748,-21.38983 c 9.7871,-0.11586 26.01388,-0.11597 36.05953,-2.5e-4 10.04565,0.11572 2.03802,0.21052 -17.79472,0.21066 -19.83274,1.3e-4 -28.0519,-0.0946 -18.26481,-0.21041 z m -495.95141,-0.71707 c 1.31543,-0.16324 3.46797,-0.16324 4.7834,0 1.31544,0.16324 0.23917,0.29681 -2.3917,0.29681 -2.63087,0 -3.70714,-0.13357 -2.3917,-0.29681 z m 122.20684,0.0296 c 0.53123,-0.21258 1.16596,-0.18643 1.41049,0.0581 0.24454,0.24454 -0.19011,0.41847 -0.96588,0.38652 -0.85729,-0.0353 -1.03167,-0.20969 -0.44461,-0.44462 z m 63.64666,-6.85637 c 0,-2.22613 0.13796,-3.13681 0.30657,-2.02375 0.16862,1.11306 0.16862,2.93443 0,4.0475 -0.16861,1.11306 -0.30657,0.20237 -0.30657,-2.02375 z m -19.29605,-32.07336 c 0.0353,-0.85729 0.20969,-1.03167 0.44461,-0.44461 0.21258,0.53124 0.18644,1.16596 -0.0581,1.41049 -0.24454,0.24454 -0.41847,-0.19011 -0.38651,-0.96588 z m -135.28133,-0.12241 c 16.49355,-0.1104 43.48301,-0.1104 59.97656,0 16.49355,0.11039 2.99883,0.20071 -29.98828,0.20071 -32.98711,0 -46.48184,-0.0903 -29.98828,-0.20071 z m 485.01986,-1.1e-4 c 20.16711,-0.10885 52.95184,-0.10882 72.85496,7e-5 19.90313,0.10888 3.40277,0.19794 -36.66746,0.1979 -40.07023,-3e-5 -56.35461,-0.0891 -36.1875,-0.19797 z M 315.33949,172.16667 c -1.9e-4,-16.59474 0.0965,-23.48847 0.21482,-15.31939 0.11835,8.16908 0.1185,21.74659 3.5e-4,30.17225 -0.11816,8.42567 -0.21498,1.74188 -0.21517,-14.85286 z m -133.47746,27.9032 c 0.0353,-0.85729 0.20969,-1.03167 0.44462,-0.44461 0.21258,0.53123 0.18643,1.16595 -0.0581,1.41049 -0.24454,0.24454 -0.41847,-0.19011 -0.38652,-0.96588 z m -39.6537,-1.41049 c 0.015,-1.21425 0.17993,-1.6219 0.36651,-0.90588 0.18659,0.71601 0.17432,1.70949 -0.0273,2.20772 -0.20158,0.49824 -0.35424,-0.0876 -0.33924,-1.30184 z m 0.14012,-34.95566 c 0,-5.05938 0.11758,-7.12912 0.26128,-4.59943 0.1437,2.52968 0.1437,6.66917 0,9.19886 -0.1437,2.52968 -0.26128,0.45994 -0.26128,-4.59943 z m 659.28473,-10.8308 c 1.11863,-0.16915 2.77442,-0.16463 3.67955,0.0101 0.90512,0.17467 -0.0101,0.31307 -2.03387,0.30754 -2.02375,-0.006 -2.7643,-0.14844 -1.64568,-0.31759 z M 142.12296,142.66899 c 0.0353,-0.85729 0.20969,-1.03167 0.44461,-0.44461 0.21259,0.53124 0.18644,1.16596 -0.0581,1.41049 -0.24454,0.24454 -0.41847,-0.19011 -0.38652,-0.96588 z m 39.73907,0 c 0.0353,-0.85729 0.20969,-1.03167 0.44462,-0.44461 0.21258,0.53124 0.18643,1.16596 -0.0581,1.41049 -0.24454,0.24454 -0.41847,-0.19011 -0.38652,-0.96588 z m 172.93856,-5.15136 c 0.0353,-0.85729 0.20969,-1.03167 0.44461,-0.44461 0.21258,0.53124 0.18644,1.16596 -0.0581,1.41049 -0.24454,0.24454 -0.41847,-0.19011 -0.38651,-0.96588 z M 218.78335,135.9234 c 16.49355,-0.1104 43.48301,-0.1104 59.97656,0 16.49356,0.11039 2.99883,0.20072 -29.98828,0.20072 -32.98711,0 -46.48184,-0.0903 -29.98828,-0.20072 z m 449.95946,9e-4 c 7.76463,-0.1191 20.67982,-0.11927 28.70044,-3.8e-4 8.02061,0.1189 1.66773,0.21635 -14.11751,0.21655 -15.78525,2.1e-4 -22.34757,-0.0971 -14.58293,-0.21617 z m 101.97209,-1.2e-4 c 7.58906,-0.11961 20.00752,-0.11961 27.59657,0 7.58906,0.1196 1.37983,0.21746 -13.79828,0.21746 -15.17812,0 -21.38735,-0.0979 -13.79829,-0.21746 z M 491.15786,93.792393 c 0,-4.249872 0.12163,-5.988457 0.27029,-3.86352 0.14865,2.124936 0.14865,5.602104 0,7.727041 -0.14866,2.124936 -0.27029,0.386352 -0.27029,-3.863521 z m -0.0618,-31.276118 c 0.006,-2.023749 0.14844,-2.764303 0.3176,-1.645676 0.16915,1.118627 0.16463,2.774422 -0.01,3.679543 -0.17468,0.905122 -0.31307,-0.01012 -0.30755,-2.033867 z m 93.30803,-23.610403 c 0.0353,-0.857292 0.20969,-1.03167 0.44461,-0.444611 0.21258,0.531234 0.18644,1.165955 -0.0581,1.410491 -0.24453,0.244537 -0.41846,-0.19011 -0.38651,-0.96588 z m -42.5428,-27.309318 c 0.71601,-0.186585 1.70949,-0.174314 2.20772,0.02727 0.49824,0.201582 -0.0876,0.354243 -1.30184,0.339245 -1.21425,-0.015 -1.6219,-0.179928 -0.90588,-0.366513 z m 10.28871,0.0027 c 0.70832,-0.185101 1.86737,-0.185101 2.57568,0 0.70832,0.185101 0.12879,0.336548 -1.28784,0.336548 -1.41662,0 -1.99615,-0.151447 -1.28784,-0.336548 z"
     id="path11" /><path
     style="fill:#5f5f5f"
     d="m 572.57147,237.66254 c 0.95061,-1.01188 1.89396,-1.83977 2.09633,-1.83977 0.20238,0 -0.40981,0.82789 -1.36042,1.83977 -0.95061,1.01187 -1.89396,1.83977 -2.09633,1.83977 -0.20238,0 0.40981,-0.8279 1.36042,-1.83977 z m -77.68466,-22.62919 -2.16144,-2.39171 2.39171,2.16143 c 1.31543,1.18879 2.3917,2.26506 2.3917,2.39171 0,0.56853 -0.60722,0.068 -2.62197,-2.16143 z m 45.98489,-12.87841 -1.78408,-2.02375 2.02375,1.78408 c 1.11307,0.98124 2.02375,1.89193 2.02375,2.02375 0,0.57715 -0.59594,0.10742 -2.26342,-1.78408 z m -76.15715,-16.55794 -2.16143,-2.3917 2.3917,2.16143 c 1.31544,1.18878 2.3917,2.26505 2.3917,2.3917 0,0.56853 -0.60722,0.068 -2.62197,-2.16143 z m 59.23125,0.36795 -1.78408,-2.02375 2.02375,1.78408 c 1.11306,0.98124 2.02375,1.89193 2.02375,2.02375 0,0.57715 -0.59594,0.10742 -2.26342,-1.78408 z m -15.83626,-15.08612 -1.4019,-1.6558 1.65579,1.4019 c 0.91069,0.77104 1.6558,1.51615 1.6558,1.65579 0,0.58892 -0.59226,0.15414 -1.90969,-1.40189 z m -65.09762,-6.25523 -2.53607,-2.75966 2.75966,2.53607 c 2.56863,2.36051 3.09802,2.98325 2.53607,2.98325 -0.12298,0 -1.36483,-1.24185 -2.75966,-2.75966 z m 51.11535,-6.99113 -1.4019,-1.65579 1.6558,1.40189 c 0.91069,0.77105 1.65579,1.51615 1.65579,1.6558 0,0.58891 -0.59225,0.15414 -1.90969,-1.4019 z m -14.336,-13.61431 -1.78407,-2.02375 2.02375,1.78407 c 1.8915,1.66749 2.36123,2.26343 1.78407,2.26343 -0.13182,0 -1.04251,-0.91069 -2.02375,-2.02375 z m -61.04986,-2.94364 -4.02236,-4.23147 4.23147,4.02236 c 3.93118,3.7369 4.56859,4.44059 4.02236,4.44059 -0.11501,0 -2.01917,-1.90416 -4.23147,-4.23148 z m 42.66823,-14.71817 -2.53607,-2.75966 2.75966,2.53607 c 1.51781,1.39483 2.75966,2.63668 2.75966,2.75966 0,0.56195 -0.62274,0.0326 -2.98325,-2.53607 z m 73.99844,-67.151664 c 5.65565,-5.666497 10.44858,-10.302721 10.65096,-10.302721 0.20237,0 -4.2594,4.636224 -9.91505,10.302721 -5.65565,5.666497 -10.44858,10.302721 -10.65096,10.302721 -0.20237,0 4.2594,-4.636224 9.91505,-10.302721 z M 511.49105,28.754585 c 0,-0.152816 0.57952,-0.732344 1.28784,-1.287841 1.16719,-0.915375 1.19322,-0.889345 0.27784,0.277847 -0.96137,1.225838 -1.56568,1.615672 -1.56568,1.009994 z"
     id="path10" /><path
     style="fill:#413f3f"
     d="m 382.19122,370.6815 c 3.56143,-0.13519 9.19114,-0.1345 12.51045,0.002 3.31931,0.13603 0.40541,0.24665 -6.47534,0.2458 -6.88074,-8.5e-4 -9.59654,-0.11215 -6.03511,-0.24734 z m 56.26089,1.6e-4 c 3.74393,-0.13356 9.87037,-0.13356 13.61431,0 3.74393,0.13356 0.68071,0.24283 -6.80716,0.24283 -7.48787,0 -10.55109,-0.10927 -6.80715,-0.24283 z m 29.47129,2.3e-4 c 3.3584,-0.13667 8.65694,-0.13591 11.77454,0.002 3.11759,0.1376 0.3698,0.24942 -6.10619,0.24849 -6.476,-9.3e-4 -9.02676,-0.11351 -5.66835,-0.25018 z m 73.93789,0.0381 c 0.71601,-0.18658 1.70949,-0.17431 2.20772,0.0273 0.49824,0.20158 -0.0876,0.35424 -1.30184,0.33924 -1.21425,-0.015 -1.6219,-0.17992 -0.90588,-0.36651 z m 8.63292,0.0354 c 6.15898,-0.5431 13.08314,-0.58507 12.76714,-0.0774 -0.18896,0.30356 -3.71839,0.49626 -7.84319,0.42822 -4.1248,-0.068 -6.34057,-0.22591 -4.92395,-0.35083 z m 131.14353,-0.0704 c 2.71436,-0.14119 7.35058,-0.14213 10.30273,-0.002 2.95214,0.14004 0.73131,0.25556 -4.93519,0.25671 -5.6665,10e-4 -8.08189,-0.11343 -5.36754,-0.25462 z m -107.98293,-48.7609 c 0,-26.91586 0.0919,-37.92689 0.20416,-24.46896 0.11229,13.45793 0.11229,35.47999 0,48.93792 -0.11229,13.45793 -0.20416,2.4469 -0.20416,-24.46896 z m -172.97676,33.48384 c -6.5e-4,-8.09499 0.10687,-11.50699 0.23893,-7.58221 0.13206,3.92478 0.13259,10.54796 10e-4,14.71818 -0.13141,4.17021 -0.23946,0.95903 -0.24011,-7.13597 z m 123.88396,-0.15252 c 0.9154,-0.17603 2.24004,-0.16934 2.94363,0.0148 0.70359,0.18419 -0.0454,0.32821 -1.66437,0.32004 -1.619,-0.008 -2.19467,-0.15887 -1.27926,-0.33489 z m 74.8305,-32.96337 c 2.9e-4,-12.95199 0.10042,-18.14689 0.22251,-11.54422 0.12209,6.60268 0.12185,17.19976 -5.4e-4,23.54908 -0.12238,6.34932 -0.22227,0.94714 -0.22197,-12.00486 z m -195.88206,16.78388 c 0.71601,-0.18659 1.70949,-0.17432 2.20772,0.0273 0.49824,0.20158 -0.0876,0.35424 -1.30184,0.33924 -1.21425,-0.015 -1.6219,-0.17993 -0.90588,-0.36651 z m 6.62317,0 c 0.71602,-0.18659 1.7095,-0.17432 2.20773,0.0273 0.49824,0.20158 -0.0876,0.35424 -1.30184,0.33924 -1.21425,-0.015 -1.6219,-0.17993 -0.90589,-0.36651 z m 35.86155,-8.59877 c 0,-0.15282 0.57953,-0.73235 1.28784,-1.28784 1.16719,-0.91538 1.19322,-0.88935 0.27785,0.27784 -0.96137,1.22584 -1.56569,1.61567 -1.56569,1.01 z m 373.89973,-5.3028 c 0.0353,-0.85729 0.20969,-1.03167 0.44461,-0.44461 0.21259,0.53123 0.18644,1.16596 -0.0581,1.41049 -0.24454,0.24454 -0.41847,-0.19011 -0.38652,-0.96588 z m -157.31453,-4.35412 c 0.004,-2.4285 0.14152,-3.33326 0.3053,-2.01057 0.16379,1.32268 0.16041,3.30963 -0.008,4.41545 -0.16791,1.10581 -0.30192,0.0236 -0.29779,-2.40488 z m 52.98543,0 c 0.004,-2.4285 0.14152,-3.33326 0.3053,-2.01057 0.16379,1.32268 0.16041,3.30963 -0.008,4.41545 -0.16791,1.10581 -0.30192,0.0236 -0.29779,-2.40488 z m -79.52059,0.7359 c 0.008,-1.61899 0.15887,-2.19466 0.33489,-1.27926 0.17603,0.91541 0.16934,2.24005 -0.0149,2.94364 -0.18419,0.70359 -0.32821,-0.0454 -0.32004,-1.66438 z m 157.44234,-0.7359 c 0.015,-1.21425 0.17993,-1.6219 0.36652,-0.90588 0.18658,0.71601 0.17431,1.70949 -0.0273,2.20772 -0.20158,0.49824 -0.35424,-0.0876 -0.33925,-1.30184 z m -387.75278,-3.1221 c 2.7489,-0.14197 7.05396,-0.14092 9.56682,0.002 2.51285,0.14327 0.26375,0.25943 -4.99799,0.25815 -5.26175,-10e-4 -7.31772,-0.11851 -4.56883,-0.26049 z m 414.16013,-0.61877 c 0.0353,-0.8573 0.20969,-1.03167 0.44461,-0.44462 0.21259,0.53124 0.18644,1.16596 -0.0581,1.4105 -0.24454,0.24453 -0.41847,-0.19011 -0.38652,-0.96588 z M 426.76767,297.82307 c -0.91537,-1.16719 -0.88934,-1.19322 0.27785,-0.27785 0.70831,0.5555 1.28784,1.13503 1.28784,1.28784 0,0.60568 -0.60432,0.21585 -1.56569,-1.00999 z m 304.02418,-13.79829 c 0.95061,-1.01187 1.89395,-1.83977 2.09633,-1.83977 0.20237,0 -0.40982,0.8279 -1.36042,1.83977 -0.95061,1.01188 -1.89396,1.83977 -2.09633,1.83977 -0.20238,0 0.40981,-0.82789 1.36042,-1.83977 z M 389.55817,271.33186 c 5.58951,-0.12517 14.5308,-0.12485 19.86954,7.2e-4 5.33873,0.12557 0.7655,0.22798 -10.16274,0.22759 -10.92825,-3.9e-4 -15.29631,-0.10313 -9.7068,-0.22831 z m 32.74994,0.0477 c 0.53123,-0.21258 1.16595,-0.18644 1.41049,0.0581 0.24454,0.24453 -0.19011,0.41847 -0.96588,0.38651 -0.85729,-0.0353 -1.03167,-0.20969 -0.44461,-0.44461 z m 83.47964,-0.0459 c 3.94631,-0.13232 10.40391,-0.13232 14.35022,0 3.94631,0.13232 0.71752,0.24058 -7.17511,0.24058 -7.89262,0 -11.12142,-0.10826 -7.17511,-0.24058 z m 71.76428,0.0153 c 1.32269,-0.16378 3.30964,-0.1604 4.41546,0.008 1.10581,0.16792 0.0236,0.30192 -2.40489,0.29779 -2.42849,-0.004 -3.33325,-0.14151 -2.01057,-0.3053 z m 36.82826,0.0306 c 0.53123,-0.21258 1.16595,-0.18644 1.41049,0.0581 0.24453,0.24453 -0.19011,0.41847 -0.96588,0.38651 -0.85729,-0.0353 -1.03167,-0.20969 -0.44461,-0.44461 z m 151.57065,-2.2448 c 1.73089,-0.15546 4.38016,-0.15327 5.88727,0.005 1.50712,0.15813 0.0909,0.28532 -3.14706,0.28265 -3.238,-0.003 -4.47109,-0.13206 -2.74021,-0.28751 z m -222.9538,-20.56837 c 0.53123,-0.21258 1.16595,-0.18644 1.41049,0.0581 0.24454,0.24454 -0.19011,0.41847 -0.96588,0.38651 -0.85729,-0.0353 -1.03167,-0.20969 -0.44461,-0.44461 z m 5.88727,0 c 0.53123,-0.21258 1.16595,-0.18644 1.41049,0.0581 0.24454,0.24454 -0.19011,0.41847 -0.96588,0.38651 -0.85729,-0.0353 -1.03167,-0.20969 -0.44461,-0.44461 z m -333.41265,-1.52057 c 11.43418,-0.11405 30.14466,-0.11405 41.57884,0 11.43419,0.11405 2.07895,0.20737 -20.78942,0.20737 -22.86836,0 -32.2236,-0.0933 -20.78942,-0.20737 z m 90.88473,0.0442 c 0.70831,-0.1851 1.86737,-0.1851 2.57568,0 0.70831,0.1851 0.12878,0.33655 -1.28784,0.33655 -1.41663,0 -1.99615,-0.15145 -1.28784,-0.33655 z m 73.98349,-0.0361 c 2.13851,-0.14913 5.4501,-0.14756 7.35909,0.003 1.909,0.15104 0.15931,0.27305 -3.88819,0.27114 -4.0475,-0.002 -5.6094,-0.1255 -3.4709,-0.27462 z m 236.68405,-12.88694 -1.4019,-1.65579 1.6558,1.40189 c 0.91068,0.77105 1.65579,1.51615 1.65579,1.6558 0,0.58891 -0.59225,0.15414 -1.90969,-1.4019 z M 504.03809,223.49629 c -0.91537,-1.16719 -0.88935,-1.19322 0.27785,-0.27784 0.70831,0.5555 1.28784,1.13502 1.28784,1.28784 0,0.60568 -0.60432,0.21584 -1.56569,-1.01 z m 80.36602,-10.91597 c 0.0353,-0.8573 0.20969,-1.03167 0.44461,-0.44462 0.21258,0.53124 0.18644,1.16596 -0.0581,1.4105 -0.24453,0.24453 -0.41846,-0.19011 -0.38651,-0.96588 z m -97.58327,-5.64197 -5.87001,-6.07125 6.07125,5.87001 c 3.33919,3.2285 6.07125,5.96056 6.07125,6.07124 0,0.53674 -0.82061,-0.23121 -6.27249,-5.87 z m -343.96197,-0.2453 c 0.0353,-0.85729 0.20969,-1.03167 0.44461,-0.44461 0.21258,0.53123 0.18644,1.16595 -0.0581,1.41049 -0.24453,0.24453 -0.41846,-0.19011 -0.38651,-0.96588 z m 212.22336,-33.79048 c -1.5e-4,-19.02323 0.095,-26.91106 0.21139,-17.5285 0.11641,9.38256 0.11653,24.94703 2.7e-4,34.58771 -0.11626,9.64067 -0.21151,1.96403 -0.21166,-17.05921 z m 249.19141,33.05457 c 0.0353,-0.85729 0.20969,-1.03167 0.44462,-0.44461 0.21258,0.53123 0.18643,1.16595 -0.0581,1.41049 -0.24454,0.24453 -0.41847,-0.19011 -0.38652,-0.96588 z m -60.49648,-0.85856 c -0.91537,-1.16719 -0.88934,-1.19322 0.27785,-0.27785 1.22584,0.96137 1.61567,1.56569 1.00999,1.56569 -0.15281,0 -0.73234,-0.57953 -1.28784,-1.28784 z M 142.36598,184.67711 c -8.4e-4,-6.88074 0.10977,-9.79464 0.24581,-6.47533 0.13604,3.31931 0.13673,8.94901 0.002,12.51045 -0.1352,3.56143 -0.2465,0.84563 -0.24735,-6.03512 z m 385.63672,5.33534 -2.16143,-2.3917 2.3917,2.16143 c 1.31544,1.18879 2.3917,2.26505 2.3917,2.3917 0,0.56854 -0.60722,0.068 -2.62197,-2.16143 z m -68.06488,-9.19886 -2.53606,-2.75965 2.75965,2.53606 c 1.51781,1.39483 2.75966,2.63668 2.75966,2.75966 0,0.56195 -0.62274,0.0326 -2.98325,-2.53607 z m 355.59973,-3.86352 c 0,-1.01187 0.16703,-1.42582 0.37118,-0.91988 0.20415,0.50593 0.20415,1.33383 0,1.83977 -0.20415,0.50594 -0.37118,0.092 -0.37118,-0.91989 z m -304.1022,-2.75966 -1.78408,-2.02374 2.02375,1.78407 c 1.11307,0.98124 2.02375,1.89193 2.02375,2.02375 0,0.57715 -0.59594,0.10742 -2.26342,-1.78408 z m -73.93776,-15.08612 -2.90901,-3.12761 3.12762,2.909 c 2.90864,2.70535 3.46578,3.34622 2.90901,3.34622 -0.12024,0 -1.52766,-1.40743 -3.12762,-3.12761 z m 59.57332,1.47181 -1.4019,-1.65579 1.65579,1.4019 c 0.91069,0.77104 1.6558,1.51615 1.6558,1.65579 0,0.58891 -0.59226,0.15414 -1.90969,-1.4019 z M 142.31714,149.3535 c 0.003,-3.238 0.13205,-4.47109 0.28751,-2.74021 0.15546,1.73089 0.15327,4.38016 -0.005,5.88727 -0.15813,1.50711 -0.28532,0.0909 -0.28265,-3.14706 z m 341.15368,-1.6558 -1.78408,-2.02375 2.02375,1.78408 c 1.11306,0.98124 2.02375,1.89193 2.02375,2.02375 0,0.57715 -0.59594,0.10742 -2.26342,-1.78408 z m 120.88819,-4.96738 c 0.015,-1.21425 0.17993,-1.6219 0.36651,-0.90588 0.18659,0.71601 0.17432,1.70949 -0.0273,2.20773 -0.20159,0.49823 -0.35425,-0.0876 -0.33925,-1.30185 z m 119.30365,-6.80599 c 6.40007,-0.12264 16.666,-0.12239 22.81318,5.7e-4 6.14717,0.12295 0.91075,0.22329 -11.63649,0.22298 -12.54725,-3.1e-4 -17.57675,-0.10091 -11.17669,-0.22355 z m 92.08009,-19.31877 c 0,-10.72587 0.10288,-15.11372 0.22862,-9.75079 0.12573,5.36294 0.12573,14.13865 0,19.50158 -0.12574,5.36294 -0.22862,0.97508 -0.22862,-9.75079 z m -349.55639,14.5342 -2.16143,-2.39171 2.39171,2.16144 c 1.31543,1.18878 2.3917,2.26505 2.3917,2.3917 0,0.56853 -0.60722,0.068 -2.62198,-2.16143 z M 616.726,112.55806 c 1.37304,-1.41662 2.66202,-2.57568 2.8644,-2.57568 0.20237,0 -0.75545,1.15906 -2.1285,2.57568 -1.37304,1.41663 -2.66202,2.57568 -2.8644,2.57568 -0.20237,0 0.75545,-1.15905 2.1285,-2.57568 z m -173.37643,-3.49556 -1.4019,-1.6558 1.6558,1.4019 c 0.91068,0.77104 1.65579,1.51615 1.65579,1.65579 0,0.58892 -0.59225,0.15415 -1.90969,-1.40189 z m -58.06687,-2.75966 c 0.73259,-0.8095 1.49756,-1.47182 1.69993,-1.47182 0.20238,0 -0.23143,0.66232 -0.96402,1.47182 -0.73259,0.8095 -1.49756,1.47182 -1.69993,1.47182 -0.20238,0 0.23143,-0.66232 0.96402,-1.47182 z M 491.07119,56.629006 c 0.008,-1.618999 0.15887,-2.194666 0.33489,-1.27926 0.17603,0.915406 0.16934,2.240041 -0.0148,2.943634 -0.18419,0.703593 -0.32821,-0.04537 -0.32004,-1.664374 z m 93.41829,-14.718174 c 0.015,-1.214249 0.17992,-1.621895 0.36651,-0.90588 0.18658,0.716016 0.17431,1.709492 -0.0273,2.207726 -0.20158,0.498234 -0.35424,-0.0876 -0.33924,-1.301846 z M 509.65127,30.504248 c 0.73259,-0.809499 1.49756,-1.471817 1.69994,-1.471817 0.20237,0 -0.23144,0.662318 -0.96403,1.471817 -0.73258,0.8095 -1.49755,1.471818 -1.69993,1.471818 -0.20237,0 0.23144,-0.662318 0.96402,-1.471818 z m 36.62158,-18.925791 c 1.11863,-0.169151 2.77442,-0.164631 3.67955,0.01005 0.90512,0.174676 -0.0101,0.313073 -2.03387,0.307548 -2.02375,-0.0055 -2.7643,-0.148442 -1.64568,-0.317594 z"
     id="path9" /><path
     style="fill:#010000"
     d="m 757.17837,372.37629 c -18.20306,-3.81508 -32.46187,-16.32165 -38.6511,-33.90133 -1.92654,-5.47209 -2.07056,-6.67189 -2.07502,-17.28679 -0.004,-10.5372 0.14525,-11.81798 1.96395,-16.80418 2.95869,-8.11168 6.20025,-13.07225 13.11156,-20.06465 5.06841,-5.12788 7.44203,-6.90671 12.51045,-9.37552 8.75372,-4.26391 13.36127,-5.26926 24.1494,-5.26926 10.78887,0 15.7912,1.10182 23.73678,5.22832 12.86855,6.6832 23.06819,19.76277 26.912,34.51075 1.73442,6.65468 1.57816,17.8575 -0.35049,25.12652 -4.60423,17.3532 -17.53577,31.0626 -34.34067,36.40633 -7.34938,2.33701 -19.55141,2.98397 -26.96686,1.42981 z m 21.88304,-26.36295 c 5.5083,-2.82066 10.88014,-9.04541 12.68276,-14.69645 2.07974,-6.5198 2.43814,-10.03482 1.52928,-14.99841 -1.60942,-8.78951 -8.34214,-17.0405 -16.34953,-20.03645 -6.04996,-2.26358 -13.57271,-2.16961 -18.73565,0.23403 -5.35201,2.49167 -11.41086,8.40484 -13.44017,13.11702 -2.24956,5.2236 -2.83793,15.18659 -1.18359,20.04181 2.74443,8.05448 8.03321,13.75711 15.79649,17.03261 5.74916,2.4257 14.18855,2.12833 19.70041,-0.69416 z m -305.19226,24.52071 -11.49714,-0.40795 8.73988,-24.65294 c 12.72427,-35.89189 25.80473,-71.61129 26.61213,-72.67098 0.51922,-0.68146 4.48573,-0.91989 15.30306,-0.91989 13.15427,0 14.67036,0.1277 15.28982,1.28784 1.02385,1.91749 34.76075,96.76032 34.50865,97.01242 -0.11904,0.11904 -5.90791,0.29068 -12.86414,0.3814 -9.17216,0.11964 -12.94898,-0.0851 -13.74406,-0.74493 -0.603,-0.50044 -1.4835,-2.7886 -1.95669,-5.08481 -1.10083,-5.34198 -2.5513,-8.13888 -4.59112,-8.85294 -0.8913,-0.31201 -9.15492,-0.42742 -18.3636,-0.25647 l -16.74305,0.31081 -1.941,6.35934 c -1.06755,3.49763 -2.30889,6.75149 -2.75853,7.23079 -1.2322,1.31348 -3.4513,1.45338 -15.99421,1.00831 z m 49.39644,-36.57243 c 0,-0.66485 -2.39374,-8.34608 -5.31941,-17.0694 -5.00015,-14.90869 -5.35952,-15.70843 -5.9879,-13.32538 -0.36768,1.39436 -2.77575,8.84375 -5.35127,16.5542 -2.57553,7.71045 -4.68278,14.25084 -4.68278,14.5342 0,0.28336 4.80181,0.51519 10.67068,0.51519 9.40619,0 10.67068,-0.14324 10.67068,-1.20881 z m 163.92367,36.74209 -10.11875,-0.25119 V 321.1674 271.88229 h 12.8784 12.87841 l -0.0113,48.38599 c -0.006,26.6123 -0.27103,48.79496 -0.58852,49.2948 -0.79016,1.24403 -3.27648,1.43261 -15.03827,1.14063 z M 374.61202,321.18817 c 0,-38.9332 0.19352,-49.31412 0.91989,-49.34506 6.50164,-0.27689 50.9935,0.0956 52.54535,0.43997 12.62705,2.80171 19.63516,7.42706 25.03805,16.52511 4.49938,7.5766 5.52004,18.33995 2.61691,27.59657 -1.83275,5.8437 -4.75862,9.87063 -10.7638,14.81442 -2.26853,1.86759 -4.12461,3.90204 -4.12461,4.521 0,0.61897 1.54795,3.80721 3.43989,7.08498 3.97001,6.878 14.95783,27.00765 14.95783,27.40268 0,0.14642 -6.42909,0.26621 -14.28685,0.26621 h -14.28686 l -7.49555,-14.5342 c -4.12255,-7.9938 -7.96374,-15.02344 -8.53596,-15.62142 -1.49003,-1.55707 -11.6793,-1.76378 -13.17578,-0.26729 -0.89195,0.89195 -1.0917,3.77505 -1.0917,15.7573 v 14.66561 h -12.8784 -12.87841 z m 50.51435,-4.62675 c 2.30613,-1.21296 6.23703,-5.66126 7.09365,-8.02733 0.6729,-1.85866 -3.62453,-9.87177 -6.32865,-11.80058 -2.12468,-1.51551 -3.31604,-1.69222 -12.87044,-1.90906 -7.40801,-0.16813 -10.84368,0.0222 -11.59056,0.64204 -0.83365,0.69187 -1.06154,3.12607 -1.06154,11.33892 0,5.75185 0.24837,10.71364 0.55193,11.02619 0.30356,0.31254 5.35374,0.42826 11.22261,0.25715 8.03076,-0.23415 11.24274,-0.61201 12.983,-1.52733 z m 148.91692,4.97161 c 0,-45.93748 0.0795,-48.99368 1.28784,-49.48986 0.70831,-0.29086 10.89145,-0.51922 22.62919,-0.50747 23.95987,0.024 28.25983,0.59871 37.50546,5.01282 12.61881,6.02456 22.17995,17.80249 25.75945,31.73188 1.48906,5.79462 1.46682,18.80758 -0.0438,25.6409 -3.15396,14.26673 -12.47133,25.39094 -26.93644,32.15998 -8.31455,3.89085 -12.54155,4.38586 -37.57249,4.39999 l -22.62919,0.0128 z m 48.32683,22.00461 c 5.2433,-2.65287 9.63546,-7.07713 11.89446,-11.9814 1.57645,-3.42244 1.88962,-5.164 1.86559,-10.37473 -0.0242,-5.23885 -0.36624,-7.01366 -2.09387,-10.86334 -2.33417,-5.20121 -6.21195,-9.11882 -11.33296,-11.44934 -4.73058,-2.15285 -20.51814,-2.77381 -22.41049,-0.88145 -1.09549,1.09548 -1.22866,3.73559 -1.22866,24.35722 v 23.12856 h 9.74022 c 9.05779,0 10.00826,-0.13561 13.56571,-1.93552 z"
     id="path8"
     sodipodi:nodetypes="sscssssssssssssssssssscsssssssssscsssssssssscccccccsscsscssssssscsssscccsssssssssssssssssscsssssssscss" /></g></svg>
